<svg width="40" height="40" viewBox="0 0 40 40" fill="none" xmlns="http://www.w3.org/2000/svg">
  <path
    d="M18.8889 21.1111V28.8889C18.8889 29.2044 18.9956 29.4682 19.2089 29.68C19.4222 29.8933 19.6867 30 20.0022 30C20.3178 30 20.5815 29.8933 20.7933 29.68C21.0052 29.4682 21.1111 29.2044 21.1111 28.8889V21.1111H28.8889C29.2044 21.1111 29.4682 21.0044 29.68 20.7911C29.8933 20.5778 30 20.3133 30 19.9978C30 19.6822 29.8933 19.4185 29.68 19.2067C29.4682 18.9948 29.2044 18.8889 28.8889 18.8889H21.1111V11.1111C21.1111 10.7956 21.0044 10.5319 20.7911 10.32C20.5778 10.1067 20.3141 10 20 10C19.6859 10 19.4222 10.1067 19.2089 10.32C18.9956 10.5333 18.8889 10.797 18.8889 11.1111V18.8889H11.1111C10.7956 18.8889 10.5319 18.9956 10.32 19.2089C10.1067 19.4222 10 19.6867 10 20.0022C10 20.3178 10.1067 20.5815 10.32 20.7933C10.5333 21.0052 10.797 21.1111 11.1111 21.1111H18.8889ZM20.0067 40C17.2422 40 14.6422 39.4756 12.2067 38.4267C9.77259 37.3763 7.65481 35.9511 5.85333 34.1511C4.05185 32.3526 2.62593 30.237 1.57556 27.8044C0.525185 25.3719 0 22.7726 0 20.0067C0 17.2422 0.524444 14.6422 1.57333 12.2067C2.6237 9.77259 4.04889 7.65481 5.84889 5.85333C7.64741 4.05185 9.76296 2.62593 12.1956 1.57556C14.6281 0.525185 17.2274 0 19.9933 0C22.7578 0 25.3578 0.524444 27.7933 1.57333C30.2274 2.6237 32.3452 4.04889 34.1467 5.84889C35.9481 7.64741 37.3741 9.76296 38.4244 12.1956C39.4748 14.6281 40 17.2274 40 19.9933C40 22.7578 39.4756 25.3578 38.4267 27.7933C37.3763 30.2274 35.9511 32.3452 34.1511 34.1467C32.3526 35.9481 30.237 37.3741 27.8044 38.4244C25.3719 39.4748 22.7726 40 20.0067 40ZM20 37.7778C24.963 37.7778 29.1667 36.0556 32.6111 32.6111C36.0556 29.1667 37.7778 24.963 37.7778 20C37.7778 15.037 36.0556 10.8333 32.6111 7.38889C29.1667 3.94444 24.963 2.22222 20 2.22222C15.037 2.22222 10.8333 3.94444 7.38889 7.38889C3.94444 10.8333 2.22222 15.037 2.22222 20C2.22222 24.963 3.94444 29.1667 7.38889 32.6111C10.8333 36.0556 15.037 37.7778 20 37.7778Z"
    fill="currentColor" />
</svg>