<svg width="40" height="40" viewBox="0 0 40 40" fill="none" xmlns="http://www.w3.org/2000/svg">
    <path
        d="M15.2605 2.16216H19.0962C20.5492 2.16216 21.76 3.2 22.0367 4.57081H24.2249C23.9308 2.00216 21.7427 0 19.0962 0H15.2605C12.614 0 10.4259 2.00216 10.1318 4.57081H12.32C12.5967 3.19568 13.8076 2.16216 15.2605 2.16216Z"
        fill="currentColor" />
    <path
        d="M5.50077 13.7946C8.60564 15.801 12.7527 16.9081 17.1808 16.9081C21.6089 16.9081 25.7516 15.801 28.8608 13.7946C31.6543 11.9913 33.2759 9.6605 33.4748 7.19131C32.7267 6.25294 31.5764 5.65186 30.2792 5.65186H24.2597H22.0975H12.264H10.1019H4.08239C2.78942 5.65186 1.63483 6.25294 0.886719 7.19131C1.08564 9.6605 2.70726 11.987 5.50077 13.7946Z"
        fill="currentColor" />
    <path
        d="M15.7012 19.7925C15.7012 20.4671 16.2504 21.0163 16.925 21.0163H17.4309C18.1055 21.0163 18.6547 20.4671 18.6547 19.7925V18.8152H15.7012V19.7925Z"
        fill="currentColor" />
    <path
        d="M4.08216 26.5427H22.2227V23.7881C22.2227 23.4552 22.3568 23.1395 22.5946 22.9059L26.733 18.8368C26.9664 18.6076 27.2778 18.4822 27.6022 18.4822H34.3568V10.3611C34.1751 10.733 33.9676 11.1005 33.7297 11.4638C32.8 12.8865 31.4724 14.1578 29.7946 15.2432C27.187 16.9297 23.9222 18.0281 20.3849 18.4476V18.8108V19.7881C20.3849 21.4184 19.0616 22.7416 17.4313 22.7416H16.9254C15.2951 22.7416 13.9718 21.4184 13.9718 19.7881V18.8108V18.4476C10.4346 18.0324 7.16969 16.9297 4.56212 15.2432C2.88428 14.1578 1.55671 12.8865 0.626984 11.4638C0.389189 11.1005 0.181622 10.733 0 10.3611V22.4605C0 24.7135 1.82919 26.5427 4.08216 26.5427Z"
        fill="currentColor" />
    <path
        d="M28.5233 19.4681C27.9439 19.4681 27.3774 19.706 26.9666 20.1168L23.9784 23.1266C23.5676 23.5417 23.3428 24.0866 23.3428 24.6703V26.5428V27.0834V27.6239V37.5135C23.3428 37.6173 23.3514 37.7212 23.3644 37.8206C23.5114 38.8844 24.4282 39.706 25.5352 39.706H37.8076C39.0141 39.706 40.0001 38.7244 40.0001 37.5136V21.6563C40.0001 20.5968 39.2476 19.7146 38.2487 19.5114C38.106 19.4811 37.959 19.4681 37.812 19.4681H35.4379H34.8974H34.3568H28.5233ZM35.4379 21.6303H37.8076C37.8249 21.6303 37.8379 21.6433 37.8379 21.6606V37.5179C37.8379 37.5222 37.8379 37.5222 37.8379 37.5266C37.8336 37.5395 37.8249 37.5482 37.812 37.5482C37.812 37.5482 37.812 37.5482 37.8076 37.5482H25.5352C25.5179 37.5482 25.5049 37.5352 25.5049 37.5179V27.6239V27.0833V26.5428V25.1157H27.092C28.0822 25.1157 28.8866 24.3113 28.8866 23.3212V21.6303H34.3568H34.8974H35.4379Z"
        fill="currentColor" />
    <path
        d="M32.4328 26.5471H27.7237C27.3259 26.5471 26.9799 26.7633 26.7896 27.0833C26.6945 27.2433 26.6426 27.4249 26.6426 27.6239V27.6282C26.6426 28.2249 27.1269 28.7093 27.7237 28.7093H35.6242C36.221 28.7093 36.7053 28.2249 36.7053 27.6282C36.7053 27.0314 36.221 26.5471 35.6242 26.5471H33.4318H32.4328Z"
        fill="currentColor" />
    <path
        d="M35.6242 33.3579H27.7237C27.1269 33.3579 26.6426 33.8422 26.6426 34.439C26.6426 35.0357 27.1269 35.5201 27.7237 35.5201H35.6242C36.221 35.5201 36.7053 35.0357 36.7053 34.439C36.7053 33.8422 36.221 33.3579 35.6242 33.3579Z"
        fill="currentColor" />
    <path
        d="M35.6242 29.9546H27.7237C27.1269 29.9546 26.6426 30.439 26.6426 31.0357C26.6426 31.6325 27.1269 32.1168 27.7237 32.1168H35.6242C36.221 32.1168 36.7053 31.6325 36.7053 31.0357C36.7053 30.439 36.221 29.9546 35.6242 29.9546Z"
        fill="currentColor" />
</svg>