<svg width="192" height="61" fill="none" xmlns="http://www.w3.org/2000/svg"><rect y=".5" width="191.78" height="60" rx="12" fill="#fff"/><g clip-path="url(#a)" fill="#0F172A"><path d="M47.236 13h.248c.2 2.468-.742 4.313-1.887 5.648-1.123 1.326-2.662 2.613-5.15 2.418-.166-2.433.778-4.14 1.921-5.473 1.06-1.242 3.005-2.347 4.867-2.593ZM54.768 38.691v.07c-.7 2.117-1.697 3.932-2.914 5.616-1.111 1.53-2.473 3.588-4.904 3.588-2.101 0-3.497-1.351-5.65-1.388-2.278-.037-3.53 1.13-5.613 1.423h-.71c-1.53-.221-2.763-1.432-3.662-2.524-2.652-3.224-4.7-7.389-5.081-12.719v-1.566c.161-3.815 2.014-6.916 4.478-8.42 1.3-.799 3.088-1.48 5.078-1.175.853.132 1.724.424 2.488.713.724.278 1.63.772 2.487.745.581-.016 1.159-.32 1.745-.533 1.715-.62 3.396-1.33 5.612-.996 2.664.403 4.554 1.586 5.722 3.412-2.253 1.434-4.034 3.595-3.73 7.285.27 3.352 2.22 5.313 4.654 6.469Z"/></g><path d="M71.852 22.5v-8.4h2.724c.984 0 1.792.172 2.424.516.64.344 1.112.832 1.416 1.464.312.624.468 1.368.468 2.232 0 .856-.156 1.6-.468 2.232A3.226 3.226 0 0 1 77 21.996c-.632.336-1.44.504-2.424.504h-2.724Zm1.272-1.08h1.404c.76 0 1.36-.124 1.8-.372.448-.248.768-.604.96-1.068.2-.464.3-1.02.3-1.668 0-.648-.1-1.208-.3-1.68a2.11 2.11 0 0 0-.96-1.08c-.44-.256-1.04-.384-1.8-.384h-1.404v6.252Zm9.901 1.224c-.568 0-1.08-.128-1.535-.384a2.916 2.916 0 0 1-1.069-1.092c-.264-.472-.396-1.02-.396-1.644 0-.624.132-1.168.396-1.632a2.863 2.863 0 0 1 1.092-1.092 2.986 2.986 0 0 1 1.524-.396c.569 0 1.076.132 1.524.396.456.256.816.62 1.08 1.092.272.464.408 1.008.408 1.632 0 .624-.136 1.172-.408 1.644a2.889 2.889 0 0 1-1.08 1.092 3.083 3.083 0 0 1-1.536.384Zm0-1.092a1.667 1.667 0 0 0 1.476-.9c.16-.304.24-.68.24-1.128 0-.448-.08-.82-.24-1.116a1.615 1.615 0 0 0-1.464-.912 1.68 1.68 0 0 0-.851.228c-.257.152-.465.38-.625.684-.16.296-.24.668-.24 1.116 0 .448.08.824.24 1.128.16.296.368.52.624.672.257.152.537.228.84.228Zm5.365.948-1.752-5.952h1.272l1.152 4.488 1.296-4.488h1.416l1.296 4.488 1.152-4.488h1.272L93.742 22.5h-1.308l-1.368-4.68-1.368 4.68H88.39Zm8.152 0v-5.952h1.128l.096 1.044c.184-.368.452-.656.804-.864.36-.216.772-.324 1.236-.324.72 0 1.284.224 1.692.672.416.448.624 1.116.624 2.004v3.42h-1.26v-3.288c0-1.152-.472-1.728-1.416-1.728-.472 0-.864.168-1.176.504-.304.336-.456.816-.456 1.44V22.5h-1.272Zm7.078 0v-8.64h1.272v8.64h-1.272Zm5.667.144c-.568 0-1.08-.128-1.536-.384a2.916 2.916 0 0 1-1.068-1.092c-.264-.472-.396-1.02-.396-1.644 0-.624.132-1.168.396-1.632a2.863 2.863 0 0 1 1.092-1.092 2.986 2.986 0 0 1 1.524-.396c.568 0 1.076.132 1.524.396.456.256.816.62 1.08 1.092.272.464.408 1.008.408 1.632 0 .624-.136 1.172-.408 1.644a2.889 2.889 0 0 1-1.08 1.092 3.083 3.083 0 0 1-1.536.384Zm0-1.092a1.667 1.667 0 0 0 1.476-.9c.16-.304.24-.68.24-1.128 0-.448-.08-.82-.24-1.116a1.615 1.615 0 0 0-1.464-.912 1.68 1.68 0 0 0-.852.228c-.256.152-.464.38-.624.684-.16.296-.24.668-.24 1.116 0 .448.08.824.24 1.128.16.296.368.52.624.672.256.152.536.228.84.228Zm6.416 1.092c-.504 0-.92-.084-1.248-.252a1.74 1.74 0 0 1-.732-.66c-.16-.28-.24-.584-.24-.912 0-.576.224-1.032.672-1.368.448-.336 1.088-.504 1.92-.504h1.56v-.108c0-.464-.128-.812-.384-1.044-.248-.232-.572-.348-.972-.348-.352 0-.66.088-.924.264-.256.168-.412.42-.468.756h-1.272c.04-.432.184-.8.432-1.104.256-.312.576-.548.96-.708.392-.168.82-.252 1.284-.252.832 0 1.476.22 1.932.66.456.432.684 1.024.684 1.776v3.66h-1.104l-.108-1.02a2.261 2.261 0 0 1-.732.828c-.32.224-.74.336-1.26.336Zm.252-1.032c.344 0 .632-.08.864-.24.24-.168.424-.388.552-.66.136-.272.22-.572.252-.9h-1.416c-.504 0-.864.088-1.08.264a.83.83 0 0 0-.312.66c0 .272.1.488.3.648.208.152.488.228.84.228Zm7.147 1.032c-.576 0-1.084-.136-1.524-.408a2.835 2.835 0 0 1-1.032-1.116c-.248-.472-.372-1.008-.372-1.608 0-.6.124-1.132.372-1.596a2.75 2.75 0 0 1 1.032-1.104 2.9 2.9 0 0 1 1.536-.408c.472 0 .884.092 1.236.276.36.184.64.444.84.78v-3.6h1.272v8.64h-1.14l-.132-.924c-.192.28-.456.528-.792.744-.336.216-.768.324-1.296.324Zm.228-1.104c.544 0 .988-.188 1.332-.564.352-.376.528-.86.528-1.452 0-.6-.176-1.084-.528-1.452-.344-.376-.788-.564-1.332-.564s-.992.188-1.344.564c-.352.368-.528.852-.528 1.452 0 .392.08.74.24 1.044.16.304.38.544.66.72.288.168.612.252.972.252Zm10.543 1.104c-.568 0-1.08-.128-1.536-.384a2.916 2.916 0 0 1-1.068-1.092c-.264-.472-.396-1.02-.396-1.644 0-.624.132-1.168.396-1.632a2.863 2.863 0 0 1 1.092-1.092 2.986 2.986 0 0 1 1.524-.396c.568 0 1.076.132 1.524.396.456.256.816.62 1.08 1.092.272.464.408 1.008.408 1.632 0 .624-.136 1.172-.408 1.644a2.889 2.889 0 0 1-1.08 1.092 3.083 3.083 0 0 1-1.536.384Zm0-1.092a1.667 1.667 0 0 0 1.476-.9c.16-.304.24-.68.24-1.128 0-.448-.08-.82-.24-1.116a1.615 1.615 0 0 0-1.464-.912 1.68 1.68 0 0 0-.852.228c-.256.152-.464.38-.624.684-.16.296-.24.668-.24 1.116 0 .448.08.824.24 1.128.16.296.368.52.624.672.256.152.536.228.84.228Zm4.4.948v-5.952h1.128l.096 1.044c.184-.368.452-.656.804-.864.36-.216.772-.324 1.236-.324.72 0 1.284.224 1.692.672.416.448.624 1.116.624 2.004v3.42h-1.26v-3.288c0-1.152-.472-1.728-1.416-1.728-.472 0-.864.168-1.176.504-.304.336-.456.816-.456 1.44V22.5h-1.272Zm12.597 0c-.584 0-1.048-.14-1.392-.42-.344-.288-.516-.796-.516-1.524v-2.94h-1.02v-1.068h1.02l.156-1.512h1.116v1.512h1.68v1.068h-1.68v2.94c0 .328.068.556.204.684.144.12.388.18.732.18h.684v1.08h-.984Zm2.356 0v-8.64h1.272v3.648c.2-.344.476-.612.828-.804.36-.2.756-.3 1.188-.3.712 0 1.272.224 1.68.672.408.448.612 1.116.612 2.004v3.42h-1.26v-3.288c0-1.152-.46-1.728-1.38-1.728-.48 0-.88.168-1.2.504-.312.336-.468.816-.468 1.44V22.5h-1.272Zm9.862.144c-.584 0-1.104-.128-1.56-.384a2.828 2.828 0 0 1-1.056-1.092c-.256-.464-.384-1.004-.384-1.62 0-.624.124-1.172.372-1.644.256-.472.608-.84 1.056-1.104.456-.264.984-.396 1.584-.396.584 0 1.092.132 1.524.396.432.256.768.6 1.008 1.032.24.432.36.908.36 1.428 0 .08-.004.168-.012.264 0 .088-.004.188-.012.3h-4.632c.04.576.228 1.016.564 1.32.344.296.74.444 1.188.444.36 0 .66-.08.9-.24.248-.168.432-.392.552-.672h1.272c-.16.56-.48 1.028-.96 1.404-.472.376-1.06.564-1.764.564Zm0-5.196c-.424 0-.8.128-1.128.384-.328.248-.528.624-.6 1.128h3.36c-.024-.464-.188-.832-.492-1.104-.304-.272-.684-.408-1.14-.408ZM71.46 45.5l5.12-14h2.88l5.12 14h-2.72l-1.12-3.24h-5.46l-1.14 3.24h-2.68Zm4.52-5.24h4.06L78 34.44l-2.02 5.82Zm10.343 9.64V35.58h2.28l.28 1.42c.32-.44.74-.827 1.26-1.16.534-.333 1.22-.5 2.06-.5.934 0 1.767.227 2.5.68a4.87 4.87 0 0 1 1.74 1.86c.427.787.64 1.68.64 2.68 0 1-.213 1.893-.64 2.68a4.91 4.91 0 0 1-1.74 1.84c-.733.44-1.566.66-2.5.66-.746 0-1.4-.14-1.96-.42a3.533 3.533 0 0 1-1.36-1.18v5.76h-2.56Zm5.34-6.4c.814 0 1.487-.273 2.02-.82.534-.547.8-1.253.8-2.12 0-.867-.266-1.58-.8-2.14-.533-.56-1.206-.84-2.02-.84-.826 0-1.506.28-2.04.84-.52.547-.78 1.253-.78 2.12 0 .867.26 1.58.78 2.14.534.547 1.214.82 2.04.82Zm7.707 6.4V35.58h2.28l.28 1.42c.32-.44.74-.827 1.26-1.16.534-.333 1.22-.5 2.06-.5.934 0 1.767.227 2.5.68a4.861 4.861 0 0 1 1.74 1.86c.427.787.64 1.68.64 2.68 0 1-.213 1.893-.64 2.68a4.901 4.901 0 0 1-1.74 1.84c-.733.44-1.566.66-2.5.66-.746 0-1.4-.14-1.96-.42a3.535 3.535 0 0 1-1.36-1.18v5.76h-2.56Zm5.34-6.4c.814 0 1.487-.273 2.02-.82.534-.547.8-1.253.8-2.12 0-.867-.266-1.58-.8-2.14-.533-.56-1.206-.84-2.02-.84-.826 0-1.506.28-2.04.84-.52.547-.78 1.253-.78 2.12 0 .867.26 1.58.78 2.14.534.547 1.214.82 2.04.82Zm17.313 2.24c-1.027 0-1.934-.173-2.72-.52-.787-.36-1.407-.867-1.86-1.52-.454-.667-.687-1.473-.7-2.42h2.7c.026.653.26 1.207.7 1.66.453.44 1.073.66 1.86.66.68 0 1.22-.16 1.62-.48.4-.333.6-.773.6-1.32 0-.573-.18-1.02-.54-1.34-.347-.32-.814-.58-1.4-.78l-1.88-.64c-1.08-.373-1.907-.853-2.48-1.44-.56-.587-.84-1.367-.84-2.34-.014-.827.18-1.533.58-2.12.413-.6.973-1.06 1.68-1.38.706-.333 1.52-.5 2.44-.5.933 0 1.753.167 2.46.5.72.333 1.28.8 1.68 1.4.413.6.633 1.313.66 2.14h-2.74c-.014-.493-.207-.927-.58-1.3-.36-.387-.867-.58-1.52-.58-.56-.013-1.034.127-1.42.42-.374.28-.56.693-.56 1.24 0 .467.146.84.44 1.12.293.267.693.493 1.2.68.506.187 1.086.387 1.74.6.693.24 1.326.52 1.9.84.573.32 1.033.747 1.38 1.28.346.52.52 1.193.52 2.02 0 .733-.187 1.413-.56 2.04-.374.627-.927 1.133-1.66 1.52-.734.373-1.634.56-2.7.56Zm11.513-.24c-1.04 0-1.873-.253-2.5-.76-.626-.507-.94-1.407-.94-2.7v-4.32h-1.7v-2.14h1.7l.3-2.66h2.26v2.66h2.68v2.14h-2.68v4.34c0 .48.1.813.3 1 .214.173.574.26 1.08.26h1.24v2.18h-1.74Zm8.504.24c-.96 0-1.826-.22-2.6-.66a4.97 4.97 0 0 1-1.82-1.82c-.44-.787-.66-1.693-.66-2.72 0-1.027.227-1.927.68-2.7a4.925 4.925 0 0 1 1.82-1.84c.774-.44 1.64-.66 2.6-.66.947 0 1.8.22 2.56.66a4.73 4.73 0 0 1 1.82 1.84c.454.773.68 1.673.68 2.7 0 1.027-.226 1.933-.68 2.72a4.768 4.768 0 0 1-1.82 1.82c-.773.44-1.633.66-2.58.66Zm0-2.22c.667 0 1.247-.247 1.74-.74.494-.507.74-1.253.74-2.24 0-.987-.246-1.727-.74-2.22-.493-.507-1.066-.76-1.72-.76-.68 0-1.266.253-1.76.76-.48.493-.72 1.233-.72 2.22 0 .987.24 1.733.72 2.24.494.493 1.074.74 1.74.74Zm7.369 1.98v-9.92h2.28l.24 1.86a4.1 4.1 0 0 1 1.46-1.52c.627-.387 1.36-.58 2.2-.58v2.7h-.72c-.56 0-1.06.087-1.5.26a2.07 2.07 0 0 0-1.04.9c-.24.427-.36 1.02-.36 1.78v4.52h-2.56Zm12.574.24c-1 0-1.886-.213-2.66-.64a4.635 4.635 0 0 1-1.82-1.8c-.44-.773-.66-1.667-.66-2.68 0-1.027.214-1.94.64-2.74a4.74 4.74 0 0 1 1.8-1.86c.774-.453 1.68-.68 2.72-.68.974 0 1.834.213 2.58.64a4.501 4.501 0 0 1 1.74 1.76c.427.733.64 1.553.64 2.46 0 .147-.006.3-.02.46 0 .16-.006.327-.02.5h-7.54c.054.773.32 1.38.8 1.82.494.44 1.087.66 1.78.66.52 0 .954-.113 1.3-.34.36-.24.627-.547.8-.92h2.6c-.186.627-.5 1.2-.94 1.72-.426.507-.96.907-1.6 1.2-.626.293-1.34.44-2.14.44Zm.02-8.32c-.626 0-1.18.18-1.66.54-.48.347-.786.88-.92 1.6h4.94c-.04-.653-.28-1.173-.72-1.56-.44-.387-.986-.58-1.64-.58Z" fill="#0F172A"/><defs><clipPath id="a"><path fill="#fff" transform="translate(24 13)" d="M0 0h35v35H0z"/></clipPath></defs></svg>