<svg width="35" height="36" fill="none" xmlns="http://www.w3.org/2000/svg"><path d="M2.917 32.583h29.166M21.89 32.569l-17.5.029-.015-21.788c0-.977.496-1.88 1.298-2.42l5.833-3.894a2.908 2.908 0 0 1 3.238 0l5.833 3.894a2.889 2.889 0 0 1 1.298 2.42l.015 21.759ZM29.137 32.598V26.75M29.167 18a2.925 2.925 0 0 0-2.917 2.917v2.916a2.925 2.925 0 0 0 2.917 2.917 2.925 2.925 0 0 0 2.916-2.917v-2.916A2.925 2.925 0 0 0 29.167 18ZM4.375 20.917h17.5M13.125 32.583v-5.468" stroke="#8E8E8E" stroke-width="1.5" stroke-miterlimit="10" stroke-linecap="round" stroke-linejoin="round"/><path d="M13.125 15.813a2.188 2.188 0 1 0 0-4.376 2.188 2.188 0 0 0 0 4.376Z" stroke="#8E8E8E" stroke-width="1.5" stroke-miterlimit="10" stroke-linecap="round" stroke-linejoin="round"/></svg>