<svg xmlns="http://www.w3.org/2000/svg" width="35" height="36" fill="none"><path stroke="#0A7DAD" stroke-linecap="round" stroke-linejoin="round" stroke-width="1.5" d="M22.619 4.627H12.38c-3.631 0-4.433 1.808-4.9 4.025l-1.648 7.89h23.334l-1.648-7.89c-.467-2.217-1.269-4.025-4.9-4.025ZM32.069 29.404c.16 1.706-1.21 3.18-2.96 3.18h-2.742c-1.575 0-1.794-.672-2.071-1.503l-.292-.875c-.408-1.196-.67-1.998-2.77-1.998h-7.467c-2.1 0-2.407.905-2.771 1.998l-.292.875c-.277.832-.496 1.502-2.07 1.502H5.891c-1.75 0-3.121-1.473-2.96-3.179l.816-8.881c.204-2.188.627-3.981 4.448-3.981h18.608c3.821 0 4.244 1.793 4.448 3.98l.817 8.882ZM5.833 12.167H4.375M30.625 12.167h-1.458M17.5 4.875v2.917M15.313 7.792h4.374M8.75 22.375h4.375M21.875 22.375h4.375"/></svg>