<svg width="39" height="33" viewBox="0 0 39 33" fill="none" xmlns="http://www.w3.org/2000/svg">
  <path
    d="M2 9.77773V5.88887C2 4.85748 2.40972 3.86833 3.13902 3.13902C3.86833 2.40972 4.85748 2 5.88887 2H9.77773M2 9.77773C4.59193 9.77773 9.77773 8.22219 9.77773 2M2 9.77773V17.5555M9.77773 2H29.2221M2 17.5555V21.4443C2 22.4757 2.40972 23.4649 3.13902 24.1942C3.86833 24.9235 4.85748 25.3332 5.88887 25.3332H9.77773M2 17.5555C4.59193 17.5555 9.77773 19.111 9.77773 25.3332M36.9998 9.77773V5.88887C36.9998 4.85748 36.5901 3.86833 35.8608 3.13902C35.1315 2.40972 34.1423 2 33.1109 2H29.2221M36.9998 9.77773C34.4079 9.77773 29.2221 8.22219 29.2221 2M36.9998 9.77773V13.6666M9.77773 25.3332H17.5555"
    stroke="currentColor" stroke-width="2.66667" stroke-linecap="round" stroke-linejoin="round" />
  <path
    d="M19.4992 17.5553C21.647 17.5553 23.3881 15.8142 23.3881 13.6665C23.3881 11.5187 21.647 9.77759 19.4992 9.77759C17.3515 9.77759 15.6104 11.5187 15.6104 13.6665C15.6104 15.8142 17.3515 17.5553 19.4992 17.5553Z"
    stroke="currentColor" stroke-width="2.66667" stroke-linecap="round" stroke-linejoin="round" />
  <path d="M31.1653 19.4998V25.3331M31.1653 25.3331V31.1664M31.1653 25.3331H25.332M31.1653 25.3331H36.9986"
    stroke="currentColor" stroke-width="2.66667" stroke-linecap="round" stroke-linejoin="round" />
</svg>