<svg width="44" height="30" viewBox="0 0 44 30" fill="none" xmlns="http://www.w3.org/2000/svg">
  <path
    d="M2 10.8889V6.44444C2 5.2657 2.46825 4.13524 3.30175 3.30175C4.13524 2.46825 5.2657 2 6.44444 2H10.8889M2 10.8889C4.96222 10.8889 10.8889 9.11111 10.8889 2M2 10.8889V19.7778M10.8889 2H33.1111M2 19.7778V24.2222C2 25.401 2.46825 26.5314 3.30175 27.3649C4.13524 28.1984 5.2657 28.6667 6.44444 28.6667H10.8889M2 19.7778C4.96222 19.7778 10.8889 21.5556 10.8889 28.6667M42 10.8889V6.44444C42 5.2657 41.5317 4.13524 40.6983 3.30175C39.8648 2.46825 38.7343 2 37.5556 2H33.1111M42 10.8889C39.0378 10.8889 33.1111 9.11111 33.1111 2M42 10.8889V19.7778M10.8889 28.6667H19.7778"
    stroke="currentColor" stroke-width="2.66667" stroke-linecap="round" stroke-linejoin="round" />
  <path
    d="M21.9991 19.7776C24.4537 19.7776 26.4436 17.7877 26.4436 15.3331C26.4436 12.8785 24.4537 10.8887 21.9991 10.8887C19.5445 10.8887 17.5547 12.8785 17.5547 15.3331C17.5547 17.7877 19.5445 19.7776 21.9991 19.7776Z"
    stroke="currentColor" stroke-width="2.66667" stroke-linecap="round" stroke-linejoin="round" />
  <path d="M28.666 28.6665H41.9993" stroke="currentColor" stroke-width="2.66667" stroke-linecap="round"
    stroke-linejoin="round" />
</svg>