<svg width="31" height="22" fill="none" xmlns="http://www.w3.org/2000/svg"><path fill-rule="evenodd" clip-rule="evenodd" d="m24.064 2.374-3.591 1.08 2.392 6.254a5.834 5.834 0 1 1-1.362.521L20.3 7.087l-4.143 8.605a.728.728 0 0 1-.658.412h-2.962A5.834 5.834 0 1 1 2.497 11.38a5.833 5.833 0 0 1 10.041 3.267h1.823l-3.558-9.964a.726.726 0 0 1-.043-.245H9.667a.73.73 0 0 1 0-1.458h3.28a.73.73 0 1 1 0 1.458h-.683l1.343 3.76 5.926-3.118-.704-1.84a.726.726 0 0 1 .21-.816.73.73 0 0 1 .262-.142L23.645.978l.419 1.396Zm-9.962 7.211 1.438 4.025 3.085-6.405-4.523 2.38Zm9.467 6.05-1.54-4.03a4.375 4.375 0 1 0 1.361-.521l1.541 4.03a.73.73 0 0 1-1.362.521Zm-12.504-.99H6.75a.729.729 0 1 0 0 1.46h4.315a4.377 4.377 0 0 1-8.69-.73 4.375 4.375 0 0 1 8.69-.73Z" fill="#8E8E8E"/></svg>