<svg width="206" height="61" fill="none" xmlns="http://www.w3.org/2000/svg"><rect x=".78" y=".5" width="204.83" height="60" rx="12" fill="#fff"/><g clip-path="url(#a)" fill="#0F172A"><path d="M31.765 15.012a4.063 4.063 0 0 0-3.966.01L42.378 28.47l4.898-4.898-15.512-8.561ZM26.34 16.398a3.729 3.729 0 0 0-.56 1.954v24.29c0 .684.187 1.336.523 1.906l14.661-14.661-14.623-13.49ZM53.77 27.157l-4.673-2.578-5.25 5.248 6.434 5.934 3.49-1.926c1.256-.696 2.008-1.944 2.008-3.34-.002-1.396-.752-2.644-2.01-3.338ZM42.434 31.243 27.733 45.944a4.12 4.12 0 0 0 2.042.556 4.11 4.11 0 0 0 1.99-.518l16.672-9.201-6.003-5.538Z"/></g><path d="M73.28 22.644c-.792 0-1.484-.18-2.076-.54a3.662 3.662 0 0 1-1.38-1.512c-.328-.648-.492-1.404-.492-2.268 0-.856.168-1.612.504-2.268a3.73 3.73 0 0 1 1.428-1.536c.624-.376 1.36-.564 2.208-.564.96 0 1.76.232 2.4.696.64.464 1.056 1.104 1.248 1.92h-1.44c-.128-.448-.38-.8-.756-1.056s-.86-.384-1.452-.384c-.88 0-1.572.284-2.076.852-.504.568-.756 1.352-.756 2.352 0 1 .248 1.78.744 2.34.496.56 1.156.84 1.98.84.832 0 1.456-.236 1.872-.708.424-.472.672-1.1.744-1.884H73.7v-.984h3.564v4.56H76.1l-.108-1.236c-.28.44-.632.78-1.056 1.02-.424.24-.976.36-1.656.36Zm8.264 0c-.584 0-1.104-.128-1.56-.384a2.828 2.828 0 0 1-1.056-1.092c-.256-.464-.384-1.004-.384-1.62 0-.624.124-1.172.372-1.644.256-.472.608-.84 1.056-1.104.456-.264.984-.396 1.584-.396.584 0 1.092.132 1.524.396.432.256.768.6 1.008 1.032.24.432.36.908.36 1.428 0 .08-.004.168-.012.264 0 .088-.004.188-.012.3h-4.632c.04.576.228 1.016.564 1.32.344.296.74.444 1.188.444.36 0 .66-.08.9-.24.248-.168.432-.392.552-.672h1.272c-.16.56-.48 1.028-.96 1.404-.472.376-1.06.564-1.764.564Zm0-5.196c-.424 0-.8.128-1.128.384-.328.248-.528.624-.6 1.128h3.36c-.024-.464-.188-.832-.492-1.104-.304-.272-.684-.408-1.14-.408ZM88.11 22.5c-.584 0-1.048-.14-1.392-.42-.344-.288-.516-.796-.516-1.524v-2.94h-1.02v-1.068h1.02l.156-1.512h1.116v1.512h1.68v1.068h-1.68v2.94c0 .328.068.556.204.684.144.12.388.18.732.18h.684v1.08h-.984Zm6.1-7.08a.863.863 0 0 1-.6-.216.766.766 0 0 1-.229-.564c0-.224.076-.408.228-.552a.837.837 0 0 1 .6-.228c.24 0 .436.076.588.228a.71.71 0 0 1 .24.552c0 .224-.08.412-.24.564a.82.82 0 0 1-.588.216Zm-.637 7.08v-5.952h1.272V22.5h-1.272Zm5.447 0c-.584 0-1.048-.14-1.392-.42-.344-.288-.516-.796-.516-1.524v-2.94h-1.02v-1.068h1.02l.156-1.512h1.116v1.512h1.68v1.068h-1.68v2.94c0 .328.068.556.204.684.144.12.388.18.732.18h.684v1.08h-.984Zm8.163.144c-.568 0-1.08-.128-1.536-.384a2.916 2.916 0 0 1-1.068-1.092c-.264-.472-.396-1.02-.396-1.644 0-.624.132-1.168.396-1.632a2.863 2.863 0 0 1 1.092-1.092 2.986 2.986 0 0 1 1.524-.396c.568 0 1.076.132 1.524.396.456.256.816.62 1.08 1.092.272.464.408 1.008.408 1.632 0 .624-.136 1.172-.408 1.644a2.889 2.889 0 0 1-1.08 1.092 3.083 3.083 0 0 1-1.536.384Zm0-1.092a1.667 1.667 0 0 0 1.476-.9c.16-.304.24-.68.24-1.128 0-.448-.08-.82-.24-1.116a1.615 1.615 0 0 0-1.464-.912 1.68 1.68 0 0 0-.852.228c-.256.152-.464.38-.624.684-.16.296-.24.668-.24 1.116 0 .448.08.824.24 1.128.16.296.368.52.624.672.256.152.536.228.84.228Zm4.4.948v-5.952h1.128l.096 1.044c.184-.368.452-.656.804-.864.36-.216.772-.324 1.236-.324.72 0 1.284.224 1.692.672.416.448.624 1.116.624 2.004v3.42h-1.26v-3.288c0-1.152-.472-1.728-1.416-1.728-.472 0-.864.168-1.176.504-.304.336-.456.816-.456 1.44V22.5h-1.272ZM76.26 45.74c-1.32 0-2.473-.3-3.46-.9-.987-.6-1.753-1.433-2.3-2.5-.547-1.08-.82-2.333-.82-3.76 0-1.44.28-2.707.84-3.8.573-1.107 1.38-1.967 2.42-2.58 1.053-.627 2.3-.94 3.74-.94 1.64 0 3 .393 4.08 1.18 1.08.787 1.78 1.873 2.1 3.26H80a2.772 2.772 0 0 0-1.16-1.52c-.56-.373-1.28-.56-2.16-.56-1.4 0-2.48.447-3.24 1.34-.76.88-1.14 2.093-1.14 3.64 0 1.547.373 2.747 1.12 3.6.76.84 1.787 1.26 3.08 1.26 1.267 0 2.22-.34 2.86-1.02.653-.693 1.047-1.6 1.18-2.72H77V37.8h6.12v7.7h-2.36l-.2-1.84a4.692 4.692 0 0 1-1.7 1.54c-.68.36-1.547.54-2.6.54Zm14.049 0c-.96 0-1.827-.22-2.6-.66a4.964 4.964 0 0 1-1.82-1.82c-.44-.787-.66-1.693-.66-2.72 0-1.027.226-1.927.68-2.7a4.92 4.92 0 0 1 1.82-1.84c.773-.44 1.64-.66 2.6-.66.946 0 1.8.22 2.56.66a4.734 4.734 0 0 1 1.82 1.84c.453.773.68 1.673.68 2.7 0 1.027-.227 1.933-.68 2.72a4.773 4.773 0 0 1-1.82 1.82c-.774.44-1.634.66-2.58.66Zm0-2.22c.666 0 1.246-.247 1.74-.74.493-.507.74-1.253.74-2.24 0-.987-.247-1.727-.74-2.22-.494-.507-1.067-.76-1.72-.76-.68 0-1.267.253-1.76.76-.48.493-.72 1.233-.72 2.22 0 .987.24 1.733.72 2.24.493.493 1.073.74 1.74.74Zm12.129 2.22c-.96 0-1.827-.22-2.6-.66a4.964 4.964 0 0 1-1.82-1.82c-.44-.787-.66-1.693-.66-2.72 0-1.027.226-1.927.68-2.7a4.92 4.92 0 0 1 1.82-1.84c.773-.44 1.64-.66 2.6-.66.946 0 1.8.22 2.56.66a4.736 4.736 0 0 1 1.82 1.84c.453.773.68 1.673.68 2.7 0 1.027-.227 1.933-.68 2.72a4.775 4.775 0 0 1-1.82 1.82c-.774.44-1.634.66-2.58.66Zm0-2.22c.666 0 1.246-.247 1.74-.74.493-.507.74-1.253.74-2.24 0-.987-.247-1.727-.74-2.22-.494-.507-1.067-.76-1.72-.76-.68 0-1.267.253-1.76.76-.48.493-.72 1.233-.72 2.22 0 .987.24 1.733.72 2.24.493.493 1.073.74 1.74.74Zm10.944-.98c-.48 0-.927-.053-1.34-.16l-.74.74c.226.12.533.22.92.3.386.08 1.013.16 1.88.24 1.32.12 2.28.433 2.88.94.6.507.9 1.207.9 2.1 0 .587-.16 1.14-.48 1.66-.32.533-.814.96-1.48 1.28-.667.333-1.52.5-2.56.5-1.414 0-2.554-.267-3.42-.8-.867-.52-1.3-1.307-1.3-2.36 0-.893.433-1.667 1.3-2.32a4.84 4.84 0 0 1-.7-.38 3.884 3.884 0 0 1-.5-.42v-.46l1.74-1.84c-.774-.68-1.16-1.553-1.16-2.62 0-.667.16-1.273.48-1.82.333-.547.8-.98 1.4-1.3.6-.32 1.326-.48 2.18-.48.56 0 1.08.08 1.56.24h3.76v1.56l-1.7.12c.266.507.4 1.067.4 1.68 0 .667-.16 1.273-.48 1.82-.32.547-.787.98-1.4 1.3-.6.32-1.314.48-2.14.48Zm0-1.96c.52 0 .946-.14 1.28-.42.346-.28.52-.68.52-1.2 0-.52-.174-.92-.52-1.2-.334-.28-.76-.42-1.28-.42-.547 0-.987.14-1.32.42-.334.28-.5.68-.5 1.2 0 .52.166.92.5 1.2.333.28.773.42 1.32.42Zm-2.4 6.14c0 .493.226.86.68 1.1.466.253 1.033.38 1.7.38.64 0 1.16-.133 1.56-.4.4-.253.6-.6.6-1.04 0-.36-.134-.66-.4-.9-.254-.24-.767-.387-1.54-.44-.547-.04-1.054-.1-1.52-.18-.387.213-.667.447-.84.7-.16.253-.24.513-.24.78Zm9.586-1.22V31.1h2.56v14.4h-2.56Zm9.996.24c-1 0-1.887-.213-2.66-.64a4.635 4.635 0 0 1-1.82-1.8c-.44-.773-.66-1.667-.66-2.68 0-1.027.213-1.94.64-2.74a4.74 4.74 0 0 1 1.8-1.86c.773-.453 1.68-.68 2.72-.68.973 0 1.833.213 2.58.64a4.501 4.501 0 0 1 1.74 1.76c.427.733.64 1.553.64 2.46 0 .147-.007.3-.02.46a6.7 6.7 0 0 1-.02.5h-7.54c.053.773.32 1.38.8 1.82.493.44 1.087.66 1.78.66.52 0 .953-.113 1.3-.34.36-.24.627-.547.8-.92h2.6c-.187.627-.5 1.2-.94 1.72-.427.507-.96.907-1.6 1.2-.627.293-1.34.44-2.14.44Zm.02-8.32c-.627 0-1.18.18-1.66.54-.48.347-.787.88-.92 1.6h4.94c-.04-.653-.28-1.173-.72-1.56-.44-.387-.987-.58-1.64-.58Zm11.939 8.08v-14h5.18c1.12 0 2.047.187 2.78.56.733.373 1.28.887 1.64 1.54.36.653.54 1.387.54 2.2a4.49 4.49 0 0 1-.52 2.14c-.347.64-.887 1.16-1.62 1.56-.733.387-1.673.58-2.82.58h-2.62v5.42h-2.56Zm2.56-7.5h2.46c.893 0 1.533-.193 1.92-.58.4-.4.6-.94.6-1.62 0-.693-.2-1.233-.6-1.62-.387-.4-1.027-.6-1.92-.6h-2.46V38Zm9.528 7.5V31.1h2.56v14.4h-2.56Zm8.596.24c-.853 0-1.553-.133-2.1-.4-.547-.28-.953-.647-1.22-1.1a2.9 2.9 0 0 1-.4-1.5c0-.92.36-1.667 1.08-2.24.72-.573 1.8-.86 3.24-.86h2.52v-.24c0-.68-.193-1.18-.58-1.5-.387-.32-.867-.48-1.44-.48-.52 0-.973.127-1.36.38-.387.24-.627.6-.72 1.08h-2.5c.067-.72.307-1.347.72-1.88.427-.533.973-.94 1.64-1.22.667-.293 1.413-.44 2.24-.44 1.413 0 2.527.353 3.34 1.06.813.707 1.22 1.707 1.22 3v6.1h-2.18l-.24-1.6a3.668 3.668 0 0 1-1.24 1.32c-.52.347-1.193.52-2.02.52Zm.58-2c.733 0 1.3-.24 1.7-.72.413-.48.673-1.073.78-1.78h-2.18c-.68 0-1.167.127-1.46.38-.293.24-.44.54-.44.9 0 .387.147.687.44.9.293.213.68.32 1.16.32Zm8.451 6.16 2.3-5.06h-.6l-3.86-9.26h2.78l2.78 6.98 2.9-6.98h2.72l-6.3 14.32h-2.72Z" fill="#0F172A"/><defs><clipPath id="a"><path fill="#fff" transform="translate(24.78 14.5)" d="M0 0h32v32H0z"/></clipPath></defs></svg>