<svg width="48" height="66" viewBox="0 0 48 66" fill="none" xmlns="http://www.w3.org/2000/svg">
    <path
        d="M24.6496 34.3406C31.5305 34.3406 37.1086 28.7625 37.1086 21.8816C37.1086 15.0007 31.5305 9.42267 24.6496 9.42267C17.7687 9.42267 12.1907 15.0007 12.1907 21.8816C12.1907 28.7625 17.7687 34.3406 24.6496 34.3406Z"
        fill="#7AD4E8" />
    <path
        d="M45.8695 21.9738C45.8695 24.0646 41.7641 25.4742 41.152 27.359C40.5188 29.3125 42.9883 32.8657 41.8063 34.4918C40.6138 36.1338 36.4609 34.8772 34.8198 36.0704C33.1946 37.253 33.1154 41.5981 31.163 42.2317C29.2792 42.8441 26.6724 39.3965 24.5828 39.3965C22.4932 39.3965 19.8864 42.8441 18.0026 42.2317C16.0502 41.5981 15.9711 37.253 14.3458 36.0704C12.7047 34.8772 8.55185 36.1338 7.35929 34.4918C6.17728 32.8657 8.64683 29.3125 8.01362 27.359C7.4015 25.4742 3.29614 24.0593 3.29614 21.9738C3.29614 19.8884 7.4015 18.4735 8.01362 16.5886C8.64683 14.6352 6.17728 11.082 7.35929 9.45588C8.55185 7.81392 12.7047 9.07047 14.3458 7.87727C15.9711 6.69464 16.0502 2.34952 18.0026 1.71597C19.8864 1.10353 22.4932 4.55112 24.5828 4.55112C26.6724 4.55112 29.2792 1.10353 31.163 1.71597C33.1154 2.34952 33.1946 6.69464 34.8198 7.87727C36.4609 9.07047 40.6138 7.81392 41.8063 9.45588C42.9883 11.082 40.5188 14.6352 41.152 16.5886C41.7588 18.4682 45.8695 19.8831 45.8695 21.9738Z"
        stroke="currentColor" stroke-width="2.5" stroke-miterlimit="10" />
    <path
        d="M24.2502 43.1239L33.1733 63.5191C33.7696 64.8812 35.6165 65.0343 36.0756 63.7619L37.5478 58.8677C37.8328 58.0705 38.7509 57.759 39.5741 58.1814L44.3813 60.9004C45.6952 61.5709 46.9405 60.383 46.3495 59.0261L35.9806 35.3259"
        stroke="currentColor" stroke-width="2.5" stroke-miterlimit="10" />
    <path
        d="M25.7384 39.7238L15.3272 63.5191C14.731 64.8812 12.8841 65.0343 12.425 63.7619L10.9528 58.8677C10.6678 58.0705 9.74965 57.759 8.92647 58.1814L4.11929 60.9004C2.80537 61.5709 1.56004 60.383 2.15104 59.0261L12.5253 35.3259"
        stroke="currentColor" stroke-width="2.5" stroke-miterlimit="10" />
</svg>