<svg width="54" height="74" viewBox="0 0 54 74" fill="none" xmlns="http://www.w3.org/2000/svg">
    <path
        d="M52.1213 26.97C52.1213 12.3816 39.9173 0.674236 25.27 1.70647C12.969 2.56884 2.98221 12.6037 2.07079 25.0362C1.26925 35.9857 7.35185 45.5893 16.4014 49.8946C17.7588 50.5414 18.625 51.9199 18.625 53.4356V59.4395V63.9735C18.625 68.3506 21.7988 72.1921 26.1038 72.6756C31.191 73.2439 35.5024 69.2326 35.5024 64.2021V53.4356C35.5024 51.9199 36.3751 50.5414 37.7325 49.8946C46.2326 45.8376 52.1213 37.1028 52.1213 26.97Z"
        stroke="currentColor" stroke-width="2.5" stroke-miterlimit="10" />
    <path d="M35.4961 59.0933H18.6187" stroke="currentColor" stroke-width="2.5" stroke-miterlimit="10" />
    <path
        d="M27.0603 28.5966C22.1542 28.5966 18.1594 32.634 18.1594 37.5926V42.8322C20.7644 44.4001 23.8089 45.3082 27.0603 45.3082C30.3117 45.3082 33.3562 44.4067 35.9612 42.8322V37.5926C35.9612 32.634 31.9665 28.5966 27.0603 28.5966Z"
        fill="#7AD4E8" />
    <path
        d="M13.7705 37.5927C13.7705 30.1841 19.7303 24.1606 27.0604 24.1606C34.3906 24.1606 40.3503 30.1841 40.3503 37.5927V39.0757C42.923 36.0051 44.4743 32.0395 44.4743 27.7081C44.4743 17.9868 36.6788 10.1079 27.0604 10.1079C17.442 10.1079 9.64648 17.9868 9.64648 27.7081C9.64648 32.0461 11.1978 36.0117 13.7705 39.0757V37.5927Z"
        fill="#7AD4E8" />
</svg>