<svg xmlns="http://www.w3.org/2000/svg" width="51" height="54" fill="none">
  <path stroke="currentColor" stroke-miterlimit="10" stroke-width="2.5"
    d="m43.664 37.506-8.683 8.657A5.914 5.914 0 0 1 30.8 47.89H7.923A5.927 5.927 0 0 1 2 41.961V7.572a5.927 5.927 0 0 1 5.923-5.929h31.56a5.927 5.927 0 0 1 5.922 5.93v25.731a5.904 5.904 0 0 1-1.74 4.202Z" />
  <path fill="#7AD4E8"
    d="m48.928 43.038-8.683 8.657a5.914 5.914 0 0 1-4.182 1.727H13.191a5.927 5.927 0 0 1-5.922-5.929V13.104a5.927 5.927 0 0 1 5.922-5.929h31.56a5.927 5.927 0 0 1 5.923 5.93v25.732a5.93 5.93 0 0 1-1.746 4.201Z" />
  <path fill="currentColor"
    d="M15.726 21.192c0-.643.521-1.165 1.165-1.165h24.852a1.165 1.165 0 0 1 0 2.33H16.89a1.165 1.165 0 0 1-1.165-1.165ZM15.726 26.629c0-.643.521-1.165 1.165-1.165h24.852a1.165 1.165 0 0 1 0 2.33H16.89a1.165 1.165 0 0 1-1.165-1.165ZM15.726 32.065c0-.643.521-1.165 1.165-1.165h24.852a1.165 1.165 0 0 1 0 2.33H16.89a1.165 1.165 0 0 1-1.165-1.165ZM15.726 37.502c0-.644.521-1.165 1.165-1.165h12.426a1.165 1.165 0 0 1 0 2.33H16.89a1.165 1.165 0 0 1-1.165-1.166Z" />
</svg>