<svg width="61" height="67" viewBox="0 0 61 67" fill="none" xmlns="http://www.w3.org/2000/svg">
    <path
        d="M54.1617 65.6108C57.2443 65.6108 59.4919 62.7217 58.7598 59.7357C56.1176 48.977 46.3723 40.9878 34.7569 40.9878C23.1414 40.9878 13.3904 48.977 10.7539 59.7414C10.0219 62.7274 12.2695 65.6108 15.352 65.6108H54.1617Z"
        stroke="currentColor" stroke-width="2.5" stroke-miterlimit="10" />
    <path
        d="M34.7568 35.6084C42.151 35.6084 48.1451 29.6358 48.1451 22.2683C48.1451 14.9008 42.151 8.92822 34.7568 8.92822C27.3626 8.92822 21.3684 14.9008 21.3684 22.2683C21.3684 29.6358 27.3626 35.6084 34.7568 35.6084Z"
        stroke="currentColor" stroke-width="2.5" stroke-miterlimit="10" />
    <path
        d="M6.41298 57.8612C8.62055 48.8691 14.3053 41.8087 24.2851 38.5264C13.0414 38.9025 2.71846 46.054 0.139152 56.5563C-0.59289 59.5423 1.65471 62.4257 4.73729 62.4257H7.24225C6.37295 61.1492 6.00693 59.5195 6.41298 57.8612Z"
        fill="#7AD4E8" />
    <path
        d="M17.3592 19.6132C17.3592 11.3619 24.0734 4.67187 32.3546 4.67187C35.2828 4.67187 38.0165 5.50954 40.3213 6.95695C37.7763 3.15608 33.4298 0.643066 28.4942 0.643066C20.6591 0.643066 14.3052 6.97405 14.3052 14.7866C14.3052 18.5419 15.7807 21.9553 18.177 24.4911C17.6508 22.9582 17.3592 21.3228 17.3592 19.6132Z"
        fill="#7AD4E8" />
</svg>