<svg width="25" height="25" fill="none" xmlns="http://www.w3.org/2000/svg"><g clip-path="url(#a)"><path d="M.25 12.5a12.25 12.25 0 1 0 24.5 0 12.25 12.25 0 0 0-24.5 0Z" fill="#0A7DAD"/><path d="M12.5 25c-3.34 0-6.48-1.3-8.84-3.66A12.42 12.42 0 0 1 0 12.5c0-3.34 1.3-6.48 3.66-8.84A12.42 12.42 0 0 1 12.5 0c3.34 0 6.48 1.3 8.84 3.66A12.42 12.42 0 0 1 25 12.5c0 3.34-1.3 6.48-3.66 8.84A12.42 12.42 0 0 1 12.5 25Zm0-24.5C5.885.5.5 5.885.5 12.5s5.385 12 12 12 12-5.385 12-12-5.385-12-12-12Z" fill="#fff"/><path d="m16.135 19.88-1.535-.945a2.058 2.058 0 0 1-.975-1.75v-.62c0-.345.205-.65.515-.8a3.912 3.912 0 0 0 2.25-3.545v-1.8a3.918 3.918 0 0 0-3.915-3.915A3.918 3.918 0 0 0 8.56 10.42v1.8c0 1.565.92 2.92 2.25 3.545.31.145.515.455.515.8v.62c0 .715-.37 1.375-.975 1.75l-1.535.945a4.224 4.224 0 0 0-2 3.48 12.299 12.299 0 0 0 5.685 1.39c2.03 0 3.95-.495 5.635-1.37a4.21 4.21 0 0 0-2-3.5Z" fill="#F2CBBE"/><path d="m16.135 19.88-1.535-.945a2.06 2.06 0 0 1-.475-.405l-1.165 1.035a.719.719 0 0 1-.96 0l-1.165-1.035a2.06 2.06 0 0 1-.475.405l-1.535.945a4.224 4.224 0 0 0-2 3.48 12.227 12.227 0 0 0 5.675 1.39c2.03 0 3.95-.495 5.635-1.37a4.21 4.21 0 0 0-2-3.5Z" fill="#FFECE9"/><path d="M11.75 24.725c.25.015.495.025.75.025.24 0 .475-.01.71-.02l-.73-3.93-.73 3.925Z" fill="#333"/><path d="M12.5 25c-.245 0-.495-.01-.765-.025a.248.248 0 0 1-.18-.095.281.281 0 0 1-.05-.2l.73-3.925a.247.247 0 0 1 .245-.205c.12 0 .225.085.245.205l.73 3.93a.24.24 0 0 1-.05.2.258.258 0 0 1-.18.095c-.25.015-.495.02-.725.02Zm-.45-.51c.29.01.565.01.86 0l-.43-2.32-.43 2.32Z" fill="#1C1D21"/><path d="M7.99 11.99h.55V9.92h-.55a.883.883 0 0 0-.885.885v.3c0 .49.395.885.885.885Zm8.985 0h-.55V9.92h.55c.49 0 .885.395.885.885v.3c0 .49-.4.885-.885.885Z" fill="#F2CBBE"/><path d="M8.54 12.24h-.55c-.625 0-1.135-.51-1.135-1.135v-.3c0-.625.51-1.135 1.135-1.135h.55c.14 0 .25.11.25.25v2.07a.25.25 0 0 1-.25.25Zm-.55-2.07a.636.636 0 0 0-.635.635v.3c0 .35.285.635.635.635h.3v-1.57h-.3Zm8.985 2.07h-.55c-.14 0-.25-.11-.25-.25V9.92c0-.14.11-.25.25-.25h.55c.625 0 1.135.51 1.135 1.135v.3c0 .625-.51 1.135-1.135 1.135Zm-.305-.5h.3c.35 0 .635-.285.635-.635v-.3a.636.636 0 0 0-.635-.635h-.3v1.57Z" fill="#1C1D21"/><path d="M12.48 6.5a3.912 3.912 0 0 0-3.885 3.42c3.4-.01 3.9-1.75 3.9-1.75s.495 1.725 3.87 1.745A3.916 3.916 0 0 0 12.48 6.5Z" fill="#333"/><path d="M18.155 23.62a.25.25 0 0 1-.25-.23c-.06-.805-.265-1.485-.62-2.085a1.498 1.498 0 0 1-.19-.26l-.065-.1c-.445-.56-1.03-.88-1.645-1.22-.365-.2-.74-.41-1.1-.675-.005 0-.005-.005-.01-.005a2.99 2.99 0 0 1-.66-.765c-.01-.015-.015-.03-.025-.05-.02-.06-.04-.12-.06-.175-.08-.235-.155-.455-.2-.71v-.015c-.045-.43-.05-1.065.41-1.59.005-.005.005-.01.01-.01.205-.205.46-.345.705-.475.15-.08.295-.16.425-.25.565-.425.845-1.065 1.065-1.635.29-.835.245-1.7.2-2.615-.015-.27-.03-.55-.035-.83 0-.14.11-.25.245-.255h.005c.135 0 .25.11.25.245.005.27.02.545.035.81.05.92.095 1.875-.225 2.805 0 .005 0 .005-.005.01-.245.635-.56 1.355-1.235 1.86 0 0-.005 0-.005.005-.155.11-.32.2-.48.285-.22.12-.43.23-.585.385-.245.285-.335.665-.285 1.195.035.215.1.405.18.625.015.05.035.1.055.155.15.24.33.45.525.61.33.245.695.445 1.04.635.635.35 1.295.715 1.8 1.36.005.005.01.01.01.015.03.04.05.08.075.115.055.085.09.145.145.195.015.015.025.03.035.045.41.675.64 1.435.71 2.33.01.14-.095.26-.23.27 0-.005-.01-.005-.015-.005Zm-11.33-.01a.252.252 0 0 1-.25-.255c.005-.42.04-.745.115-1.065 0-.005.005-.01.005-.02.345-1.1.92-1.895 1.755-2.435.215-.14.425-.265.63-.39.605-.37 1.175-.72 1.68-1.225.275-.275.33-.745.375-1.155l.005-.03v-.125c.005-.375-.005-.615-.185-.75a7.707 7.707 0 0 1-1.48-1.025l-.01-.01a3.858 3.858 0 0 1-1.12-2.35c-.07-.68-.045-1.36-.015-2.015.01-.28.025-.57.025-.85 0-.14.115-.25.255-.245.14 0 .25.115.245.255-.005.285-.015.58-.025.865-.025.635-.055 1.295.015 1.94.095.8.42 1.49.975 2.045.41.365.83.65 1.4.96l.025.015c.42.3.41.785.405 1.175v.16l-.005.045c-.05.47-.115 1.055-.515 1.455-.545.545-1.14.91-1.775 1.295-.2.125-.41.25-.62.385-.73.47-1.235 1.175-1.545 2.155-.065.28-.095.57-.1.945a.271.271 0 0 1-.265.25Z" fill="#1C1D21"/><path d="M12.5 25c-2.015 0-4.015-.49-5.79-1.42a.253.253 0 0 1-.135-.23c.04-1.515.83-2.89 2.115-3.685l1.535-.945c.155-.095.295-.215.42-.36.04-.05.1-.08.165-.085.07-.01.14.015.195.06l1.165 1.035c.18.16.45.16.63 0l1.165-1.035a.253.253 0 0 1 .165-.065c.075 0 .145.03.19.085.12.14.26.26.42.36l1.535.945a4.443 4.443 0 0 1 2.115 3.71c0 .095-.05.185-.135.225A12.514 12.514 0 0 1 12.5 25Zm-5.42-1.79c1.67.845 3.54 1.29 5.42 1.29 1.895 0 3.7-.425 5.38-1.27a3.956 3.956 0 0 0-1.875-3.14l-1.535-.945c-.13-.08-.25-.17-.36-.275l-.99.875a.975.975 0 0 1-1.29 0l-.99-.875c-.11.105-.23.195-.36.275l-1.535.945a3.974 3.974 0 0 0-1.865 3.12Z" fill="#1C1D21"/><path d="m12.9 21.005 1.09-2.07h-.32l-.71.625a.719.719 0 0 1-.96 0l-.71-.625h-.32l1.09 2.07c.205.395.635.395.84 0Z" fill="#333"/><path d="M12.48 21.55c-.26 0-.5-.16-.645-.43l-1.085-2.075a.251.251 0 0 1 .005-.245.248.248 0 0 1 .215-.12h.32c.06 0 .12.02.165.065l.71.625c.18.16.45.16.63 0l.71-.625a.253.253 0 0 1 .165-.065h.32a.248.248 0 0 1 .22.365l-1.09 2.07c-.14.275-.38.435-.64.435Zm-.935-2.06.735 1.395c.055.1.13.165.2.165s.145-.06.2-.165l.735-1.395-.29.255a.975.975 0 0 1-1.29 0l-.29-.255Z" fill="#1C1D21"/><path d="M10.835 18.525c-.005 0-.005 0 0 0-.03.035-.065.07-.095.1l-.025.025a.856.856 0 0 1-.1.09c-.005.005-.01.005-.01.01-.03.025-.065.05-.095.075-.01.01-.025.015-.035.025-.035.025-.07.05-.11.075v2.225L12 19.56l-1.165-1.035Zm3.29 0c.03.035.065.07.095.1l.025.025c.03.03.065.065.1.09.005.005.01.005.01.01.03.025.065.05.095.075.01.01.025.015.035.025.035.025.07.05.11.075v2.225l-1.635-1.59 1.165-1.035Z" fill="#FFECE9"/><path d="M10.365 21.4a.203.203 0 0 1-.095-.02.25.25 0 0 1-.155-.23v-2.225c0-.085.045-.165.12-.21l.095-.065a.133.133 0 0 0 .03-.025c.03-.025.06-.045.085-.065l.01-.01c.025-.02.055-.05.085-.08l.02-.02c.03-.035.06-.06.08-.085l.005-.005a.236.236 0 0 1 .16-.08c.07-.01.14.015.195.06l1.165 1.035c.05.045.08.11.085.18a.238.238 0 0 1-.075.185l-1.635 1.59a.269.269 0 0 1-.175.07Zm.25-2.34v1.5l1.02-.99-.785-.695c-.025.025-.045.045-.07.065-.005.005-.01.005-.015.01-.035.03-.07.055-.105.085-.015 0-.03.01-.045.025Zm3.98 2.34a.259.259 0 0 1-.175-.07l-1.635-1.59a.257.257 0 0 1-.075-.185c0-.07.03-.135.085-.18l1.165-1.035c.055-.05.13-.07.2-.06.055.01.11.035.15.075l.01.01c.02.025.045.05.08.085l.02.02c.035.035.06.06.09.08l.01.01c.025.02.055.045.085.065.01.01.02.015.03.025l.095.065c.075.045.12.125.12.21v2.225c0 .1-.06.19-.155.23a.238.238 0 0 1-.1.02Zm-1.27-1.835 1.02.99v-1.5h-.005c-.015-.01-.025-.02-.04-.03-.04-.03-.075-.055-.105-.085-.005-.005-.01-.005-.015-.01-.025-.02-.045-.04-.07-.065l-.785.7Z" fill="#1C1D21"/><path d="M8.825 19.88a4.224 4.224 0 0 0-2 3.48c.065.035.135.07.205.105.005 0 .005.005.01.005.27.135.54.26.82.375l.035.015.195.075c.01.005.02.005.025.01.195.075.395.145.595.21.025.005.045.015.07.02.055.02.115.035.17.05.03.01.055.015.085.025.055.015.11.035.165.05.025.005.05.015.07.02.105.03.21.055.31.08.035.01.065.015.1.025.05.01.1.025.15.035.04.01.075.015.115.025l.15.03c.04.01.08.015.12.025l.15.03v-5.645l-.005.005-1.535.95Z" fill="#AAADAD"/><path d="M10.365 24.815c-.015 0-.03 0-.045-.005a12.34 12.34 0 0 1-3.61-1.23.253.253 0 0 1-.135-.23c.04-1.515.83-2.89 2.115-3.685l1.53-.945c.005-.005.005-.005.01-.005a.254.254 0 0 1 .385.215v5.64a.247.247 0 0 1-.09.19.27.27 0 0 1-.16.055ZM7.08 23.21c.96.485 1.98.84 3.03 1.055v-4.89l-1.16.715a3.967 3.967 0 0 0-1.87 3.12Z" fill="#1C1D21"/><path d="M14.595 18.925v5.645a12.218 12.218 0 0 0 3.54-1.19 4.21 4.21 0 0 0-2-3.5l-1.535-.945c0-.005 0-.01-.005-.01Z" fill="#AAADAD"/><path d="M14.595 24.82a.255.255 0 0 1-.25-.25v-5.645c0-.09.05-.175.13-.22a.258.258 0 0 1 .255.005.01.01 0 0 1 .01.01l1.53.945a4.443 4.443 0 0 1 2.115 3.71c0 .095-.05.185-.135.225-1.135.59-2.35 1-3.61 1.215a.138.138 0 0 1-.045.005Zm.25-5.445v4.895c1.055-.21 2.07-.56 3.03-1.04A3.956 3.956 0 0 0 16 20.09l-1.155-.715Z" fill="#1C1D21"/><path d="M9.155 24.04a4.17 4.17 0 0 0-.095.22c.425.125.855.225 1.295.305l-.005-5.635-1.4 3.47c-.12.3.1.63.425.63.115 0 .195.12.145.225l-.365.785Zm6.425-1.005c.325 0 .55-.33.425-.63L14.6 18.93v5.64a11.4 11.4 0 0 0 1.3-.3 3.188 3.188 0 0 0-.1-.23l-.365-.78a.16.16 0 0 1 .145-.225Z" fill="#AAADAD"/><path d="M14.6 24.82a.236.236 0 0 1-.16-.06.264.264 0 0 1-.09-.19l.005-5.64c0-.12.085-.22.2-.245.12-.025.235.04.28.15l1.405 3.47c.09.22.065.465-.07.66a.716.716 0 0 1-.45.3l.31.665c.035.075.07.155.105.245a.253.253 0 0 1-.165.33c-.435.125-.88.23-1.33.305-.015.01-.025.01-.04.01Zm.25-4.605v4.055c.24-.045.475-.1.71-.165l-.345-.74a.401.401 0 0 1 .025-.39.404.404 0 0 1 .345-.19c.07 0 .135-.035.175-.09.04-.06.045-.13.02-.195l-.93-2.285Z" fill="#1C1D21"/><path d="M11.24 15.105a.269.269 0 0 1-.105-.025 3.181 3.181 0 0 1-1.82-2.865v-1.8c0-.205.02-.405.06-.605a.252.252 0 1 1 .495.095c-.03.165-.05.34-.05.51v1.8c0 1.03.6 1.975 1.535 2.415.125.06.18.21.12.335a.278.278 0 0 1-.235.14Z" fill="#FFECE9"/><path d="M11.22 8.035a.25.25 0 0 1-.11-.475l.14-.065a.251.251 0 0 1 .33.135.251.251 0 0 1-.135.33.813.813 0 0 0-.115.055.302.302 0 0 1-.11.02Zm-1.6 2.07c-.015 0-.03 0-.05-.005a.254.254 0 0 1-.2-.295c.12-.63.43-1.2.89-1.65a.252.252 0 0 1 .355.005c.095.1.095.255-.005.355-.385.38-.645.86-.75 1.39-.02.12-.125.2-.24.2Z" fill="#F2CBBE"/><path d="M8.595 10.17a.24.24 0 0 1-.185-.085.236.236 0 0 1-.06-.195c.06-.485.205-.95.43-1.385a.245.245 0 0 1 .335-.105c.125.065.17.215.105.335-.15.295-.265.605-.33.93 1.47-.05 2.295-.455 2.74-.79.5-.38.62-.77.625-.77.03-.105.13-.18.24-.18.11 0 .21.075.24.18 0 0 .125.385.62.765.44.34 1.26.74 2.715.795a3.668 3.668 0 0 0-3.9-2.895.251.251 0 0 1-.04-.5 4.17 4.17 0 0 1 4.49 3.62.248.248 0 0 1-.06.195.269.269 0 0 1-.19.085c-2.445-.015-3.465-.905-3.865-1.47-.415.57-1.44 1.46-3.91 1.47Z" fill="#1C1D21"/><path d="M9.46 8.175a.281.281 0 0 1-.16-.055.252.252 0 0 1-.035-.35c.25-.3.54-.57.86-.79a.25.25 0 0 1 .35.065.25.25 0 0 1-.065.35 3.72 3.72 0 0 0-.76.695.258.258 0 0 1-.19.085ZM11.1 7c-.1 0-.195-.06-.235-.16a.244.244 0 0 1 .145-.32c.065-.025.13-.045.195-.065.13-.04.27.03.315.16.04.13-.03.27-.16.315l-.17.06a.551.551 0 0 1-.09.01Zm-.74 17.815c-.015 0-.03 0-.045-.005-.445-.08-.89-.18-1.325-.31a.25.25 0 0 1-.165-.33c.035-.085.065-.165.1-.235l.31-.665a.697.697 0 0 1-.45-.3.706.706 0 0 1-.07-.66l1.405-3.47a.247.247 0 0 1 .28-.15c.115.025.2.125.2.245l.005 5.635a.247.247 0 0 1-.09.19.234.234 0 0 1-.155.055Zm-.955-.72c.235.06.47.115.705.165v-4.05l-.925 2.285a.205.205 0 0 0 .195.285c.14 0 .27.07.345.19.075.12.085.265.025.39l-.345.735Z" fill="#1C1D21"/><path d="m22.355 16.915-.17.17c-.17.17-.44.17-.61 0l-3.53-3.53.78-.78 3.53 3.53c.165.17.165.44 0 .61Z" fill="#C67552"/><path d="M21.88 17.41a.8.8 0 0 1-.565-.235l-2.75-2.75-.695-.695c-.1-.1-.1-.255 0-.355l.78-.775a.255.255 0 0 1 .175-.075c.065 0 .13.025.175.075l3.445 3.445a.8.8 0 0 1-.565 1.365Zm-2.965-3.34 2.75 2.75a.3.3 0 0 0 .21.09.28.28 0 0 0 .21-.09.3.3 0 0 0 .09-.21.28.28 0 0 0-.09-.21l-3.27-3.27-.425.425.525.515Z" fill="#1C1D21"/><path d="M14.325 9.055a3.105 3.105 0 0 0 0 4.395 3.105 3.105 0 0 0 4.395 0 3.105 3.105 0 0 0 0-4.395 3.114 3.114 0 0 0-4.395 0Z" fill="#8CEEF9"/><path d="M16.36 9.4a.25.25 0 0 1-.02-.5c.06-.005.12-.005.18-.005.14 0 .25.11.25.25s-.11.25-.25.25c-.045 0-.095 0-.14.005h-.02Zm-1.945 2.1c-.14 0-.25-.11-.25-.25 0-.63.245-1.22.69-1.665.15-.15.315-.28.5-.38a.247.247 0 0 1 .34.095c.07.12.025.275-.095.34a1.842 1.842 0 0 0-.94 1.61.24.24 0 0 1-.245.25Z" fill="#DCFDFF"/><path d="M16.525 14.605c-.86 0-1.72-.325-2.375-.98a3.356 3.356 0 0 1 0-4.745 3.332 3.332 0 0 1 2.375-.985c.9 0 1.74.35 2.375.985s.985 1.475.985 2.375c0 .9-.35 1.74-.985 2.375-.66.65-1.52.975-2.375.975Zm0-6.21c-.765 0-1.48.295-2.02.835a2.858 2.858 0 0 0 4.04 4.04c.54-.54.835-1.255.835-2.02 0-.765-.295-1.48-.835-2.02a2.862 2.862 0 0 0-2.02-.835Z" fill="#1C1D21"/><path d="M15.595 14.215c.605.19 1.25.19 1.855 0V10.78l-1.51.935a.728.728 0 0 0-.345.62v1.88Z" fill="#AAADAD"/><path d="M16.525 14.61c-.335 0-.675-.05-1-.155a.252.252 0 0 1-.175-.24v-1.88c0-.34.175-.65.46-.83l1.51-.935a.254.254 0 0 1 .385.215v3.435c0 .11-.07.205-.175.24a3.68 3.68 0 0 1-1.005.15Zm-.68-.585c.445.11.91.11 1.355 0V11.23l-1.13.7a.48.48 0 0 0-.225.405v1.69Z" fill="#1C1D21"/><path d="M17.45 11.03c-.14 0-.25-.11-.25-.25v-.61c0-.14.11-.25.25-.25s.25.11.25.25v.61c0 .14-.11.25-.25.25Zm-.925 1.635c-.14 0-.25-.11-.25-.25v-.055c0-.14.11-.25.25-.25s.25.11.25.25v.055c0 .135-.115.25-.25.25Zm0 .86c-.14 0-.25-.11-.25-.25v-.055c0-.14.11-.25.25-.25s.25.11.25.25v.055a.25.25 0 0 1-.25.25Zm-4.025 1.09c-.435 0-.835-.235-1.055-.61a.247.247 0 0 1 .09-.34c.12-.07.27-.03.34.09.13.22.365.36.62.36a.708.708 0 0 0 .62-.36c.07-.12.22-.16.34-.09.12.07.16.22.09.34-.21.38-.61.61-1.045.61Z" fill="#1C1D21"/><path d="M19.54 11.99h-2.09v2.23c.465-.145.9-.4 1.27-.77.415-.42.69-.925.82-1.46Z" fill="#AAADAD"/><path d="M17.45 14.465a.236.236 0 0 1-.15-.05.24.24 0 0 1-.1-.2v-2.23c0-.14.11-.25.25-.25h2.09c.075 0 .15.035.195.095.045.06.065.14.045.215a3.314 3.314 0 0 1-.89 1.575c-.38.38-.855.67-1.37.83-.02.015-.045.015-.07.015Zm.25-2.225v1.615c.315-.14.595-.335.845-.585.295-.295.52-.645.66-1.035H17.7v.005Z" fill="#1C1D21"/><path d="M14.325 13.45c.37.37.805.625 1.27.77v-1.33H13.88c.125.195.275.385.445.56Z" fill="#AAADAD"/><path d="M15.595 14.465a.386.386 0 0 1-.075-.01 3.362 3.362 0 0 1-1.85-1.435.254.254 0 0 1 .215-.385H15.6c.14 0 .25.11.25.25v1.33c0 .08-.04.155-.1.2a.26.26 0 0 1-.155.05Zm-1.09-1.195c.245.245.53.445.845.585v-.715h-.97c.04.045.08.09.125.13Z" fill="#1C1D21"/></g><defs><clipPath id="a"><path fill="#fff" d="M0 0h25v25H0z"/></clipPath></defs></svg>