<svg width="35" height="32" viewBox="0 0 35 32" fill="none" xmlns="http://www.w3.org/2000/svg">
  <path
    d="M3.14028 31.1111C2.24583 31.1111 1.49917 30.8117 0.900278 30.2128C0.300093 29.6126 0 28.8653 0 27.9708V8.97361C0 8.07917 0.300093 7.3325 0.900278 6.73361C1.49917 6.13343 2.24583 5.83333 3.14028 5.83333H11.6667V3.14028C11.6667 2.24583 11.9668 1.49917 12.5669 0.900277C13.1658 0.300092 13.9125 0 14.8069 0H20.1931C21.0875 0 21.8348 0.300092 22.435 0.900277C23.0339 1.49917 23.3333 2.24583 23.3333 3.14028V5.83333H31.8597C32.7542 5.83333 33.5008 6.13343 34.0997 6.73361C34.6999 7.3325 35 8.07917 35 8.97361V27.9708C35 28.8653 34.7006 29.6119 34.1017 30.2108C33.5015 30.811 32.7542 31.1111 31.8597 31.1111H3.14028ZM13.6111 5.83333H21.3889V3.14028C21.3889 2.84213 21.2644 2.56796 21.0156 2.31778C20.7654 2.06889 20.4912 1.94444 20.1931 1.94444H14.8069C14.5088 1.94444 14.2346 2.06889 13.9844 2.31778C13.7356 2.56796 13.6111 2.84213 13.6111 3.14028V5.83333Z"
    fill="currentColor" />
</svg>