<svg width="18" height="19" viewBox="0 0 18 19" fill="none" xmlns="http://www.w3.org/2000/svg">
  <path
    d="M4.08352 18.0972H0.450708V6.41748H4.08352V18.0972ZM2.24758 4.85498C1.11477 4.85498 0.177271 3.87842 0.177271 2.70654C0.177271 1.57373 1.11477 0.63623 2.24758 0.63623C3.41946 0.63623 4.35696 1.57373 4.35696 2.70654C4.35696 3.87842 3.41946 4.85498 2.24758 4.85498ZM17.6382 18.0972H14.0445V12.4331C14.0445 11.0659 14.0054 9.34717 12.1304 9.34717C10.2554 9.34717 9.98196 10.7925 9.98196 12.3159V18.0972H6.34915V6.41748H9.82571V8.01904H9.86477C10.3726 7.12061 11.5445 6.14404 13.3023 6.14404C16.9741 6.14404 17.6773 8.56592 17.6773 11.6909V18.0972H17.6382Z"
    fill="currentColor" />
</svg>