<svg width="40" height="40" viewBox="0 0 40 40" fill="none" xmlns="http://www.w3.org/2000/svg">
  <path
    d="M20.0006 12.8572V8.57147M20.0006 12.8572C17.6291 12.8572 15.7148 12.8572 15.7148 15.7143C15.7148 20 24.2863 20 24.2863 24.2858C24.2863 27.1429 22.372 27.1429 20.0006 27.1429M20.0006 12.8572C22.372 12.8572 24.2863 13.9429 24.2863 15.7143M15.7148 24.2858C15.7148 26.4286 17.6291 27.1429 20.0006 27.1429M20.0006 27.1429V31.4286"
    stroke="currentColor" stroke-width="2.28571" stroke-linecap="round" stroke-linejoin="round" />
  <path
    d="M20.0001 38.5714C30.2569 38.5714 38.5716 30.2567 38.5716 20C38.5716 9.7433 30.2569 1.42859 20.0001 1.42859C9.74342 1.42859 1.42871 9.7433 1.42871 20C1.42871 30.2567 9.74342 38.5714 20.0001 38.5714Z"
    stroke="currentColor" stroke-width="2.28571" stroke-linecap="round" stroke-linejoin="round" />
</svg>