<svg xmlns="http://www.w3.org/2000/svg" width="46" height="34" fill="none"><path fill="#AD6B00" d="M33.5 9.794V8.75C33.5 4.048 26.407.5 17 .5S.5 4.048.5 8.75v7.5c0 3.917 4.922 7.03 12 7.961v1.039c0 4.703 7.093 8.25 16.5 8.25s16.5-3.547 16.5-8.25v-7.5c0-3.881-4.766-6.998-12-7.956Zm-24 10.744c-3.673-1.026-6-2.715-6-4.288v-2.638c1.53 1.084 3.58 1.957 6 2.544v4.382Zm15-4.382c2.42-.587 4.47-1.46 6-2.544v2.638c0 1.573-2.327 3.262-6 4.288v-4.382Zm-3 13.382c-3.673-1.026-6-2.715-6-4.288v-.782c.493.019.992.032 1.5.032.727 0 1.438-.024 2.136-.066.774.278 1.564.513 2.364.705v4.4Zm0-8.366c-1.49.22-2.994.33-4.5.328a30.57 30.57 0 0 1-4.5-.328v-4.46c1.492.194 2.995.29 4.5.288a34.459 34.459 0 0 0 4.5-.289v4.46Zm12 9a31.021 31.021 0 0 1-9 0V25.7a34.459 34.459 0 0 0 9 .011v4.46Zm9-4.922c0 1.573-2.327 3.262-6 4.288v-4.382c2.42-.587 4.47-1.46 6-2.544v2.638Z"/></svg>