<svg width="36" height="40" viewBox="0 0 36 40" fill="none" xmlns="http://www.w3.org/2000/svg">
  <path
    d="M2.28418 9.82623V29.4342C2.28418 33.7659 9.30722 37.2774 17.9706 37.2774C26.6339 37.2774 33.657 33.7659 33.657 29.4342V9.82623M2.28418 9.82623C2.28418 14.1579 9.30722 17.6694 17.9706 17.6694C26.6339 17.6694 33.657 14.1579 33.657 9.82623M2.28418 9.82623C2.28418 5.49455 9.30722 1.98303 17.9706 1.98303C26.6339 1.98303 33.657 5.49455 33.657 9.82623M33.657 19.6302C33.657 23.9619 26.6339 27.4734 17.9706 27.4734C9.30722 27.4734 2.28418 23.9619 2.28418 19.6302"
    stroke="currentColor" stroke-width="3.9216" />
</svg>