<svg width="40" height="40" viewBox="0 0 40 40" fill="none" xmlns="http://www.w3.org/2000/svg">
  <path
    d="M14.1474 1.98303V5.90463M25.9122 1.98303V5.90463M14.1474 33.3558V37.2774M25.9122 33.3558V37.2774M6.30417 13.7478H2.38257M6.30417 25.5126H2.38257M37.677 13.7478H33.7554M37.677 25.5126H33.7554M10.2258 33.3558H29.8338C31.9996 33.3558 33.7554 31.6001 33.7554 29.4342V9.82623C33.7554 7.66039 31.9996 5.90463 29.8338 5.90463H10.2258C8.05993 5.90463 6.30417 7.66039 6.30417 9.82623V29.4342C6.30417 31.6001 8.05993 33.3558 10.2258 33.3558ZM14.1474 13.7478H25.9122V25.5126H14.1474V13.7478Z"
    stroke="currentColor" stroke-width="3.9216" stroke-linecap="round" stroke-linejoin="round" />
</svg>