<svg width="32" height="41" viewBox="0 0 32 41" fill="none" xmlns="http://www.w3.org/2000/svg">
  <path
    d="M10.0881 6.71469H6.16647C4.00063 6.71469 2.24487 8.47045 2.24487 10.6363V34.1659C2.24487 36.3317 4.00063 38.0875 6.16647 38.0875H25.7745C27.9403 38.0875 29.6961 36.3317 29.6961 34.1659V10.6363C29.6961 8.47045 27.9403 6.71469 25.7745 6.71469H21.8529M10.0881 6.71469C10.0881 8.88053 11.8438 10.6363 14.0097 10.6363H17.9313C20.0971 10.6363 21.8529 8.88053 21.8529 6.71469M10.0881 6.71469C10.0881 4.54885 11.8438 2.79309 14.0097 2.79309H17.9313C20.0971 2.79309 21.8529 4.54885 21.8529 6.71469M15.9705 20.4403H21.8529M15.9705 28.2835H21.8529M10.0881 20.4403H10.1077M10.0881 28.2835H10.1077"
    stroke="currentColor" stroke-width="3.9216" stroke-linecap="round" />
</svg>