<svg width="73" height="81" fill="none" xmlns="http://www.w3.org/2000/svg"><path d="M62.181 13.793a19.733 19.733 0 0 0 2.862-3.946c2.044-3.712-.67-8.255-4.908-8.255H36.33c-18.486 0-33.526 15.04-33.526 33.526h67.052a33.373 33.373 0 0 0-7.675-21.325Z" fill="#FDF088"/><path d="M64.205 41.829a6.872 6.872 0 1 0 0-13.745 6.872 6.872 0 0 0 0 13.745Z" fill="#D9EBE9"/><path d="M62.43 26.269c-1.35-3.98-5.109-6.64-9.312-6.64H19.542c-4.192 0-7.951 2.643-9.302 6.61a27.514 27.514 0 0 0-1.462 8.83c-.026 15.16 12.343 27.574 27.503 27.6 15.24.028 27.601-12.318 27.601-27.551 0-3.096-.51-6.072-1.452-8.849Z" fill="#D9EBE9"/><path d="M23.395 59.425a46.724 46.724 0 0 1-6.262-23.44 46.843 46.843 0 0 1 2.93-16.357h-.521c-4.192 0-7.951 2.643-9.302 6.611-.217.64-.411 1.292-.582 1.952a6.872 6.872 0 1 0-.072 13.543c1.9 7.643 7.013 14.05 13.81 17.691Z" fill="#D9EBE9"/><path d="M36.795 73.672 49.42 69.04a3.762 3.762 0 0 0 2.465-3.532V48.432c0-2.615-2.602-4.432-5.057-3.531L36.33 48.753l-10.5-3.852c-2.454-.9-5.056.916-5.056 3.531v17.076c0 1.578.984 2.988 2.465 3.531l12.627 4.633h.929Z" fill="#EEEDFF"/><path d="M54.632 53.437v17.076a3.76 3.76 0 0 1-2.466 3.531L39.54 78.678a9.338 9.338 0 0 1-3.21.57L30.36 66.167l5.971-11.799c.71 0 1.42-.124 2.096-.371l11.149-4.091c2.454-.9 5.057.917 5.057 3.53Z" fill="#29B3EC"/><path d="M36.33 54.368v24.88a9.338 9.338 0 0 1-3.21-.57l-12.626-4.634a3.761 3.761 0 0 1-2.465-3.53V53.436c0-2.614 2.602-4.43 5.056-3.531l11.15 4.091a6.104 6.104 0 0 0 2.095.371Z" fill="#29B3EC"/><path d="M56.873 61.807a4.402 4.402 0 0 1 4.402 4.402v2.88a4.402 4.402 0 0 1-4.402 4.401 5.842 5.842 0 1 1 0-11.683ZM15.787 61.807a4.402 4.402 0 0 0-4.402 4.402v2.88a4.402 4.402 0 0 0 4.402 4.401 5.842 5.842 0 1 0 0-11.683Z" fill="#D9EBE9"/><path d="M21.571 34.677v2.072a1.172 1.172 0 1 0 2.344 0v-2.072a1.172 1.172 0 1 0-2.344 0ZM32.322 38.615c0 2.396 1.798 4.345 4.008 4.345s4.008-1.949 4.008-4.345-1.798-4.346-4.008-4.346-4.008 1.95-4.008 4.346Zm5.672 0c0 1.104-.746 2.002-1.664 2.002-.918 0-1.664-.898-1.664-2.002 0-1.104.746-2.002 1.664-2.002.918 0 1.664.898 1.664 2.002ZM48.745 34.677v2.072a1.172 1.172 0 0 0 2.344 0v-2.072a1.172 1.172 0 1 0-2.344 0Z" fill="#0F172A"/><path d="M8.721 42.995a28.86 28.86 0 0 0 8.136 13.192v4.53a7.039 7.039 0 0 0-1.07-.082 5.58 5.58 0 0 0-5.574 5.574v2.88a5.58 5.58 0 0 0 5.574 5.573 6.97 6.97 0 0 0 2.66-.525c.473.439 1.028.782 1.643 1.007l12.627 4.634c2.333.854 4.884.858 7.227 0l12.625-4.634a4.9 4.9 0 0 0 1.645-1.007c.82.338 1.718.525 2.659.525a5.58 5.58 0 0 0 5.574-5.574v-2.88a5.58 5.58 0 0 0-5.574-5.573c-.364 0-.72.028-1.07.082v-4.492a28.887 28.887 0 0 0 4.576-5.4 1.172 1.172 0 1 0-1.96-1.285 26.554 26.554 0 0 1-2.64 3.398 4.94 4.94 0 0 0-2.72-3.92v-.586c0-3.435-3.426-5.808-6.633-4.631L36.33 47.505l-10.096-3.704c-3.231-1.186-6.632 1.221-6.632 4.631v.585a4.935 4.935 0 0 0-2.716 3.882C12.42 48.016 9.94 41.645 9.95 35.07a26.481 26.481 0 0 1 1.4-8.454c1.184-3.48 4.476-5.817 8.191-5.817h33.577c3.697 0 7.009 2.326 8.202 5.845a26.46 26.46 0 0 1 1.39 8.473c0 2.084-.244 4.214-.768 6.337v.007a26.22 26.22 0 0 1-1.407 4.156 1.172 1.172 0 0 0 2.15.934 28.62 28.62 0 0 0 1.274-3.556c4.556.139 8.29-3.531 8.29-8.04a8.001 8.001 0 0 0-1.572-4.77 34.552 34.552 0 0 0-6.963-16.354 20.923 20.923 0 0 0 2.355-3.42C68.538 5.93 65.278.42 60.135.42H36.33c-7.761 0-15.105 2.516-21.238 7.278a1.172 1.172 0 0 0 1.438 1.85c5.717-4.438 12.564-6.784 19.8-6.784h23.805c3.352 0 5.493 3.59 3.881 6.518a18.613 18.613 0 0 1-2.692 3.712 1.172 1.172 0 0 0-.046 1.545 32.275 32.275 0 0 1 6.566 13.24 8.112 8.112 0 0 0-3.979-.86c-.101-.34-.2-.657-.32-1.008l-.006-.019c-1.508-4.45-5.698-7.436-10.421-7.436H19.541c-4.719 0-8.902 2.976-10.41 7.406-.115.337-.227.69-.337 1.058a8.176 8.176 0 0 0-3.98.86c1.323-5.716 4.17-10.926 8.338-15.21a1.172 1.172 0 1 0-1.68-1.633C6.3 16.252 3.026 22.9 1.986 30.182A8 8 0 0 0 .41 34.956c0 4.549 3.785 8.194 8.31 8.039Zm3.836 26.093v-2.88c0-1.78 1.449-3.23 3.23-3.23a4.675 4.675 0 0 1 4.67 4.67 4.693 4.693 0 0 1-1.354 3.285 4.664 4.664 0 0 1-3.316 1.385c-1.781 0-3.23-1.449-3.23-3.23Zm7.997 3.7A7.014 7.014 0 0 0 19.2 61.52v-8.083a2.586 2.586 0 0 1 3.482-2.431l11.149 4.09.002.002a7.64 7.64 0 0 0 1.325.347v22.546a8.184 8.184 0 0 1-1.634-.413c-13.3-4.891-12.658-4.62-12.97-4.79Zm39.55-6.58v2.88a3.234 3.234 0 0 1-3.23 3.23c-2.62 0-4.67-2.146-4.67-4.67a4.675 4.675 0 0 1 4.67-4.67c1.78 0 3.23 1.45 3.23 3.23Zm-10.244 1.44c0 1.994.843 3.834 2.246 5.14a2.62 2.62 0 0 1-.344.156l-12.625 4.633a8.172 8.172 0 0 1-1.635.415V55.445c.397-.064.88-.184 1.328-.348l11.148-4.091c1.675-.613 3.482.616 3.482 2.43V61.522a7.018 7.018 0 0 0-3.6 6.127ZM21.988 47.96c.273-1.516 1.878-2.532 3.44-1.96l10.498 3.853c.261.096.547.096.808 0l10.499-3.852a2.588 2.588 0 0 1 3.482 2.431v.072a5.242 5.242 0 0 0-1.544.301l-11.147 4.091a4.953 4.953 0 0 1-3.373.005l-.013-.004-11.149-4.091-.002-.001a5.241 5.241 0 0 0-1.541-.301s-.01-.259.042-.544Zm42.533-7.312c.358-1.836.533-3.69.533-5.53 0-1.97-.208-3.976-.598-5.855a5.708 5.708 0 0 1 5.45 5.693 5.708 5.708 0 0 1-5.385 5.692ZM8.204 29.263a29.18 29.18 0 0 0-.598 5.804c-.003 1.93.202 3.865.54 5.581a5.707 5.707 0 0 1-5.391-5.692c0-3.042 2.409-5.565 5.449-5.693Z" fill="#0F172A"/></svg>