<svg width="24" height="24" fill="none" xmlns="http://www.w3.org/2000/svg"><path d="M20.605 21.13a.388.388 0 0 1-.388-.387 7.738 7.738 0 0 0-5.078-7.251.39.39 0 0 1-.063-.701 5.094 5.094 0 0 0 2.497-4.363 5.081 5.081 0 0 0-5.073-5.07 5.077 5.077 0 0 0-5.07 5.07c0 1.78.956 3.452 2.497 4.363a.39.39 0 0 1-.063.7 7.74 7.74 0 0 0-5.079 7.252.388.388 0 1 1-.776 0 8.525 8.525 0 0 1 4.91-7.7 5.877 5.877 0 0 1-2.264-4.615 5.853 5.853 0 0 1 5.847-5.847 5.853 5.853 0 0 1 5.848 5.847 5.88 5.88 0 0 1-2.264 4.614 8.525 8.525 0 0 1 4.91 7.7.393.393 0 0 1-.39.389Z" fill="#0A7DAD"/><path d="M12.5 15.44a1.154 1.154 0 0 1-1.152-1.152c0-.635.517-1.153 1.152-1.153.635 0 1.152.518 1.152 1.153 0 .634-.517 1.152-1.152 1.152Zm0-1.526a.376.376 0 1 0 .004.753.376.376 0 0 0-.004-.753ZM11.702 15.88s.79.617 1.613 0l.789 3.657-1.487 1.494-1.726-1.494.81-3.658Z" fill="#0A7DAD"/><path d="M12.62 21.419a.386.386 0 0 1-.254-.095l-1.726-1.495a.388.388 0 0 1-.125-.378l.806-3.657a.386.386 0 0 1 .249-.28.385.385 0 0 1 .368.058c.061.044.586.415 1.146-.003a.386.386 0 0 1 .612.227l.789 3.657a.392.392 0 0 1-.105.357l-1.487 1.494a.37.37 0 0 1-.273.115Zm-1.297-2.024L12.6 20.5l1.082-1.087-.638-2.954c-.39.13-.766.09-1.069-.007l-.652 2.942Z" fill="#0A7DAD"/></svg>