<svg width="81" height="81" fill="none" xmlns="http://www.w3.org/2000/svg"><g clip-path="url(#a)"><path d="M30.444 76.721a6.537 6.537 0 0 0 3.323.908H59.058c2.381 0 4.364-1.927 4.322-4.308a4.229 4.229 0 0 0-2.191-3.63.295.295 0 0 1-.156-.258v-.008c0-.136.093-.254.225-.284a4.232 4.232 0 0 0 1.939-7.259 4.554 4.554 0 0 0 1.01-7.95 4.9 4.9 0 0 0-2.189-9.287H51.91a.983.983 0 0 1-.894-1.391l1.2-2.627a11.686 11.686 0 0 0 1.056-4.855V30.31c0-.787-.154-1.567-.453-2.295a5.028 5.028 0 0 0-4.65-3.116h-.011c-1.387 0-2.64.828-3.184 2.104l-2.11 4.95-7.946 4.627-1.303.553a7.958 7.958 0 0 0-4.076 3.91l-9.384 19.34v10.61l10.29 5.728Z" fill="#D9EBE9"/><path d="M8.43 79.247h15.83a3.507 3.507 0 0 0 3.507-3.507v-32.2a3.507 3.507 0 0 0-3.507-3.506H8.43a2.127 2.127 0 0 0-2.127 2.127V77.12c0 1.175.952 2.127 2.127 2.127Z" fill="#29B3EC"/><path d="m51.945 18.551-3.662-1.903a1.207 1.207 0 0 0-1.124.005l-3.644 1.938c-.883.47-1.922-.278-1.758-1.265l.679-4.071a1.208 1.208 0 0 0-.352-1.067l-2.97-2.867c-.72-.695-.33-1.914.66-2.063l4.082-.612c.393-.06.732-.308.906-.665l1.809-3.71c.439-.9 1.718-.905 2.166-.01l1.843 3.692c.178.356.52.601.913.657l4.087.574c.991.139 1.392 1.354.679 2.056l-2.942 2.895a1.208 1.208 0 0 0-.342 1.07l.717 4.065c.173.986-.859 1.742-1.747 1.281ZM30.692 24.893l-2.923-1.519a.964.964 0 0 0-.897.004l-2.91 1.547a.964.964 0 0 1-1.403-1.01l.542-3.25a.963.963 0 0 0-.281-.85l-2.37-2.29a.964.964 0 0 1 .526-1.646l3.258-.489a.964.964 0 0 0 .723-.53l1.445-2.962a.964.964 0 0 1 1.728-.008l1.472 2.947c.142.284.414.48.729.524l3.262.459a.964.964 0 0 1 .542 1.641l-2.348 2.311a.964.964 0 0 0-.274.854l.573 3.245a.964.964 0 0 1-1.394 1.022ZM64.48 24.893l2.923-1.519a.964.964 0 0 1 .897.004l2.909 1.547a.964.964 0 0 0 1.403-1.01l-.542-3.25a.963.963 0 0 1 .282-.85l2.37-2.29a.964.964 0 0 0-.527-1.646l-3.258-.489a.964.964 0 0 1-.723-.53l-1.444-2.962a.964.964 0 0 0-1.73-.008l-1.471 2.947a.963.963 0 0 1-.728.524l-3.263.459a.964.964 0 0 0-.542 1.641l2.349 2.311a.964.964 0 0 1 .273.854l-.572 3.245a.964.964 0 0 0 1.393 1.022Z" fill="#FDF088"/><path d="M68.092 49.546a6.081 6.081 0 0 0-6.074-6.074h-1.27a1.173 1.173 0 0 0 0 2.346h1.27a3.733 3.733 0 0 1 3.728 3.728c0 1.421-.79 2.7-2.064 3.337a1.173 1.173 0 0 0-.159 2.002 3.39 3.39 0 0 1 1.416 2.75c0 1.386-.87 2.654-2.165 3.153a1.173 1.173 0 0 0-.368 1.961c.634.579.998 1.403.998 2.26a3.075 3.075 0 0 1-2.398 2.987 1.47 1.47 0 0 0-.384 2.722 3.067 3.067 0 0 1 1.584 2.623 2.988 2.988 0 0 1-.872 2.16 3.21 3.21 0 0 1-2.277.955h-25.29c-.959 0-1.901-.258-2.727-.745l-2.1-1.24v-5.906a1.173 1.173 0 1 0-2.346 0v7.175a2.337 2.337 0 0 1-2.334 2.334H6.303a1.173 1.173 0 1 0 0 2.346H24.26a4.688 4.688 0 0 0 4.483-3.34l1.105.651a7.713 7.713 0 0 0 3.919 1.07h25.29a5.57 5.57 0 0 0 3.951-1.656 5.317 5.317 0 0 0 1.544-3.846 5.414 5.414 0 0 0-1.487-3.623c1.62-.952 2.685-2.72 2.685-4.667 0-.988-.273-1.951-.774-2.785a5.766 5.766 0 0 0 2.309-4.59 5.737 5.737 0 0 0-1.232-3.544 6.037 6.037 0 0 0 2.04-4.544ZM41.269 13.032c.008.008.012.019.01.03l-.679 4.071c-.15.9.217 1.791.958 2.324a2.371 2.371 0 0 0 2.508.17l3.644-1.939a.034.034 0 0 1 .032 0l3.662 1.904c.81.42 1.77.347 2.506-.193a2.366 2.366 0 0 0 .936-2.333l-.717-4.064a.034.034 0 0 1 .01-.03l2.942-2.896c.65-.64.877-1.576.59-2.443a2.365 2.365 0 0 0-1.928-1.61l-4.087-.575a.034.034 0 0 1-.026-.019l-1.844-3.692A2.366 2.366 0 0 0 47.656.42h-.011a2.365 2.365 0 0 0-2.128 1.337l-1.81 3.71a.034.034 0 0 1-.025.018l-4.082.613a2.366 2.366 0 0 0-1.914 1.63 2.366 2.366 0 0 0 .614 2.436l2.969 2.868Zm-1.338-4.61.017-.004 4.082-.612a2.38 2.38 0 0 0 1.786-1.311l1.81-3.71a.052.052 0 0 1 .008-.015c.009-.006.035-.006.043 0 0 0 .004.004.01.015l1.844 3.692a2.38 2.38 0 0 0 1.798 1.294l4.087.574a.062.062 0 0 1 .018.005c.008.006.016.03.013.04 0 0-.002.005-.011.014L52.494 11.3a2.38 2.38 0 0 0-.675 2.11l.717 4.065c.002.012.001.017.001.017-.003.01-.024.025-.034.026 0 0-.006-.001-.017-.007l-3.662-1.903a2.38 2.38 0 0 0-2.215.01l-3.645 1.938a.058.058 0 0 1-.016.007c-.01 0-.032-.016-.035-.026 0 0-.001-.004.001-.017l.679-4.071a2.38 2.38 0 0 0-.695-2.104l-2.969-2.867c-.009-.009-.011-.013-.011-.013-.003-.01.005-.035.013-.041ZM21.926 20.581l-.524 3.142a2.124 2.124 0 0 0 .86 2.085 2.129 2.129 0 0 0 2.251.152l2.812-1.495 2.826 1.469a2.124 2.124 0 0 0 2.25-.173c.66-.485.982-1.287.84-2.094l-.553-3.137 2.27-2.233a2.123 2.123 0 0 0 .53-2.193 2.124 2.124 0 0 0-1.732-1.446l-3.154-.443-1.423-2.85a2.123 2.123 0 0 0-1.911-1.182h-.01a2.124 2.124 0 0 0-1.911 1.2l-1.396 2.863-3.15.473a2.124 2.124 0 0 0-1.718 1.462c-.25.78-.038 1.619.551 2.188l2.292 2.212Zm2.483-4.031a2.137 2.137 0 0 0 1.603-1.177l1.258-2.58 1.283 2.568c.314.63.918 1.064 1.614 1.162l2.843.4-2.046 2.013a2.137 2.137 0 0 0-.606 1.894l.499 2.827-2.548-1.324a2.136 2.136 0 0 0-1.988.01l-2.535 1.347.472-2.831a2.137 2.137 0 0 0-.623-1.889l-2.066-1.994 2.84-.426ZM76.087 16.181a2.124 2.124 0 0 0-1.718-1.462l-3.15-.473-1.395-2.863a2.138 2.138 0 0 0-3.832-.018l-1.424 2.85-3.153.443a2.123 2.123 0 0 0-1.732 1.446 2.124 2.124 0 0 0 .53 2.193l2.27 2.234-.553 3.136c-.142.807.18 1.61.84 2.094.661.485 1.523.55 2.25.173l2.826-1.469 2.811 1.496a2.13 2.13 0 0 0 2.251-.152 2.124 2.124 0 0 0 .86-2.086l-.523-3.142 2.291-2.212c.59-.57.8-1.407.551-2.188Zm-4.55 2.79a2.136 2.136 0 0 0-.624 1.888l.472 2.831-2.534-1.347a2.135 2.135 0 0 0-1.99-.01l-2.547 1.324.5-2.827a2.136 2.136 0 0 0-.607-1.894l-2.046-2.014 2.843-.4a2.137 2.137 0 0 0 1.614-1.16l1.283-2.57 1.258 2.581a2.137 2.137 0 0 0 1.604 1.177l2.839.426-2.065 1.994ZM6.303 41.206h5.005a1.173 1.173 0 1 0 0-2.346H6.303a1.173 1.173 0 0 0 0 2.346Z" fill="#0F172A"/><path d="M16.307 41.206h7.953a2.336 2.336 0 0 1 2.334 2.334v20.027a1.173 1.173 0 1 0 2.346 0V45.038l1.658-3.492a6.78 6.78 0 0 1 3.476-3.333l1.302-.554c.045-.019.09-.04.132-.066l7.945-4.626c.219-.127.39-.321.49-.553l2.11-4.951a2.289 2.289 0 0 1 2.115-1.392c1.57 0 2.969.938 3.566 2.39.242.59.365 1.212.365 1.85v5.461c0 1.518-.32 2.987-.95 4.368l-1.2 2.626a2.147 2.147 0 0 0 .147 2.061c.399.62 1.077.99 1.814.99h3.838a1.173 1.173 0 0 0 0-2.345h-3.542l1.076-2.358a12.77 12.77 0 0 0 1.163-5.342V30.31a7.17 7.17 0 0 0-.542-2.741 6.184 6.184 0 0 0-5.746-3.843 4.628 4.628 0 0 0-4.263 2.817l-1.958 4.593-7.545 4.393-1.235.525a9.123 9.123 0 0 0-4.677 4.485l-.25.527a4.68 4.68 0 0 0-3.97-2.206h-7.953a1.173 1.173 0 1 0 0 2.346Z" fill="#0F172A"/></g><defs><clipPath id="a"><path fill="#fff" transform="translate(.66 .42)" d="M0 0h80v80H0z"/></clipPath></defs></svg>