<svg width="21" height="17" viewBox="0 0 21 17" fill="none" xmlns="http://www.w3.org/2000/svg">
  <path
    d="M18.1414 4.53467C18.1414 4.72998 18.1414 4.88623 18.1414 5.08154C18.1414 10.5112 14.0398 16.7222 6.50076 16.7222C4.15701 16.7222 2.00857 16.0581 0.211697 14.8862C0.524197 14.9253 0.836697 14.9644 1.18826 14.9644C3.10232 14.9644 4.86013 14.3003 6.26638 13.2065C4.46951 13.1675 2.94607 11.9956 2.43826 10.355C2.7117 10.394 2.94607 10.4331 3.21951 10.4331C3.57107 10.4331 3.9617 10.355 4.2742 10.2769C2.3992 9.88623 0.992947 8.24561 0.992947 6.25342V6.21436C1.53982 6.52686 2.20388 6.68311 2.86795 6.72217C1.73513 5.97998 1.03201 4.72998 1.03201 3.32373C1.03201 2.54248 1.22732 1.83936 1.57888 1.25342C3.61013 3.71436 6.65701 5.35498 10.0554 5.55029C9.97732 5.23779 9.93826 4.92529 9.93826 4.61279C9.93826 2.34717 11.7742 0.51123 14.0398 0.51123C15.2117 0.51123 16.2664 0.97998 17.0476 1.80029C17.9461 1.60498 18.8445 1.25342 19.6258 0.784668C19.3133 1.76123 18.6883 2.54248 17.8289 3.05029C18.6492 2.97217 19.4695 2.73779 20.1726 2.42529C19.6258 3.24561 18.9226 3.94873 18.1414 4.53467Z"
    fill="currentColor" />
</svg>