<svg width="80" height="91" fill="none" xmlns="http://www.w3.org/2000/svg"><g clip-path="url(#a)"><path d="M55.295 51.013H24.79a7.67 7.67 0 0 0-5.392 2.209 7.5 7.5 0 0 0-2.234 5.333v33.938h45.759V58.555a7.5 7.5 0 0 0-2.234-5.333 7.67 7.67 0 0 0-5.393-2.21Z" fill="#29B3EC"/><path d="M62.922 90.607c8.424 0 15.253-6.753 15.253-15.084 0-8.33-6.83-15.083-15.253-15.083-8.424 0-15.253 6.753-15.253 15.083s6.829 15.084 15.253 15.084Z" fill="#FDF088"/><path d="M40.042 49.127c7.371 0 13.347-5.909 13.347-13.198 0-7.289-5.976-13.198-13.347-13.198-7.37 0-13.346 5.91-13.346 13.198 0 7.29 5.975 13.198 13.346 13.198Z" fill="#D9EBE9"/><path d="m60.253 55.726 3.302-1.885a9.516 9.516 0 0 0-3.494-3.447 9.65 9.65 0 0 0-4.766-1.267H47.41a15.146 15.146 0 0 0 6.638-7.231 14.929 14.929 0 0 0 .766-9.738 15.072 15.072 0 0 0-5.426-8.16 15.363 15.363 0 0 0-9.345-3.162c-3.383 0-6.67 1.113-9.344 3.162a15.072 15.072 0 0 0-5.427 8.16 14.929 14.929 0 0 0 .766 9.738 15.146 15.146 0 0 0 6.638 7.231H24.79a9.6 9.6 0 0 0-6.737 2.765 9.385 9.385 0 0 0-2.796 6.663v33.938h3.814V58.555c0-1.5.602-2.94 1.675-4a5.753 5.753 0 0 1 4.044-1.657h30.506a5.793 5.793 0 0 1 2.86.76 5.712 5.712 0 0 1 2.098 2.068ZM28.603 35.93c0-2.237.67-4.424 1.927-6.285a11.413 11.413 0 0 1 5.135-4.166c2.09-.856 4.39-1.08 6.61-.644a11.48 11.48 0 0 1 5.857 3.096 11.273 11.273 0 0 1 3.13 5.792 11.195 11.195 0 0 1-.65 6.536 11.34 11.34 0 0 1-4.214 5.077 11.533 11.533 0 0 1-14.441-1.41 11.26 11.26 0 0 1-3.354-7.996Z" fill="#0F172A"/><path d="M24.79 62.325h3.813v30.168h-3.814V62.325ZM67.057 68.947l-6.291 10.085-3.259-2.406-2.288 3.017 4.929 3.637a1.92 1.92 0 0 0 1.5.345 1.918 1.918 0 0 0 1.274-.86L70.31 70.93l-3.253-1.982Z" fill="#0F172A"/><path d="M80.081 75.523c0-3.356-1.006-6.636-2.892-9.427a17.12 17.12 0 0 0-7.7-6.25 17.34 17.34 0 0 0-9.915-.965 17.221 17.221 0 0 0-8.786 4.644 16.911 16.911 0 0 0-4.696 8.688 16.794 16.794 0 0 0 .976 9.804 17.012 17.012 0 0 0 6.32 7.616 17.297 17.297 0 0 0 9.534 2.86 17.278 17.278 0 0 0 12.127-4.977 16.894 16.894 0 0 0 5.032-11.993Zm-30.506 0c0-2.61.783-5.162 2.25-7.332a13.315 13.315 0 0 1 5.99-4.861 13.487 13.487 0 0 1 7.71-.751 13.393 13.393 0 0 1 6.834 3.612 13.154 13.154 0 0 1 3.653 6.758c.515 2.56.25 5.214-.76 7.625a13.232 13.232 0 0 1-4.915 5.923 13.453 13.453 0 0 1-7.415 2.225 13.438 13.438 0 0 1-9.433-3.87 13.138 13.138 0 0 1-3.913-9.329ZM68.642 39.7h7.626v3.771h-7.626v-3.77ZM3.817 39.7h7.626v3.771H3.817v-3.77ZM38.136 1.991h3.813v7.542h-3.813V1.991ZM61.602 17.59l5.393-5.333 2.697 2.666-5.393 5.333-2.697-2.666ZM10.377 14.918l2.696-2.666 5.393 5.332-2.696 2.667-5.393-5.333Z" fill="#0F172A"/></g><defs><clipPath id="a"><path fill="#fff" transform="translate(.003)" d="M0 0h79.993v90.84H0z"/></clipPath></defs></svg>