<svg width="194" height="47" viewBox="0 0 194 47" fill="none" xmlns="http://www.w3.org/2000/svg">
<g filter="url(#filter0_b_1632_8107)">
<rect y="0.256836" width="193.628" height="46.4397" rx="5.35993" fill="white" fill-opacity="0.96"/>
<rect x="0.334995" y="0.591831" width="192.958" height="45.7697" rx="5.02493" stroke="white" stroke-width="0.669991"/>
<rect x="8.71985" y="8.97668" width="29" height="29" rx="14.5" fill="#DEAE35"/>
<rect x="8.71985" y="8.97668" width="29" height="29" rx="14.5" stroke="#C19420" stroke-width="4"/>
<path d="M23.2198 25.9766C26.3265 25.9766 28.8448 23.5515 28.8448 20.56C28.8448 17.5684 26.3265 15.1433 23.2198 15.1433C20.1132 15.1433 17.5948 17.5684 17.5948 20.56C17.5948 23.5515 20.1132 25.9766 23.2198 25.9766Z" fill="white"/>
<path d="M26.3782 26.485C26.6532 26.3434 26.9698 26.5517 26.9698 26.86V30.9017C26.9698 31.6517 26.4448 32.0184 25.7948 31.71L23.5615 30.6517C23.3698 30.5684 23.0698 30.5684 22.8782 30.6517L20.6448 31.71C19.9948 32.01 19.4698 31.6434 19.4698 30.8934L19.4865 26.86C19.4865 26.5517 19.8115 26.3517 20.0782 26.485C21.0198 26.96 22.0865 27.2267 23.2198 27.2267C24.3532 27.2267 25.4282 26.96 26.3782 26.485Z" fill="white"/>
<rect x="45.7198" y="12.6731" width="69.5278" height="8.20738" rx="4.10369" fill="#E6E6E6"/>
<rect x="45.7198" y="26.2404" width="46.2294" height="8.03988" rx="4.01994" fill="#E6E6E6"/>
<path d="M129.884 28.1812V20.6812H131.157V28.1812H129.884ZM126.77 25.0676V23.7949H134.27V25.0676H126.77Z" fill="#00112D"/>
<path d="M136.186 28.9767V17.3403H140.334C141.239 17.3403 141.989 17.5051 142.584 17.8346C143.179 18.1642 143.624 18.6149 143.919 19.1869C144.215 19.7551 144.362 20.3952 144.362 21.1074C144.362 21.8233 144.213 22.4672 143.913 23.0392C143.618 23.6074 143.171 24.0581 142.572 24.3915C141.978 24.721 141.23 24.8858 140.328 24.8858H137.476V23.3971H140.169C140.741 23.3971 141.205 23.2987 141.561 23.1017C141.917 22.9009 142.179 22.6282 142.345 22.2835C142.512 21.9388 142.595 21.5468 142.595 21.1074C142.595 20.668 142.512 20.2778 142.345 19.9369C142.179 19.596 141.915 19.329 141.555 19.1358C141.199 18.9426 140.73 18.846 140.146 18.846H137.942V28.9767H136.186ZM149.851 29.1528C149.033 29.1528 148.319 28.9653 147.709 28.5903C147.099 28.2153 146.626 27.6907 146.288 27.0165C145.951 26.3422 145.783 25.5543 145.783 24.6528C145.783 23.7475 145.951 22.9559 146.288 22.2778C146.626 21.5998 147.099 21.0733 147.709 20.6983C148.319 20.3233 149.033 20.1358 149.851 20.1358C150.669 20.1358 151.383 20.3233 151.993 20.6983C152.603 21.0733 153.076 21.5998 153.413 22.2778C153.751 22.9559 153.919 23.7475 153.919 24.6528C153.919 25.5543 153.751 26.3422 153.413 27.0165C153.076 27.6907 152.603 28.2153 151.993 28.5903C151.383 28.9653 150.669 29.1528 149.851 29.1528ZM149.857 27.7267C150.387 27.7267 150.826 27.5865 151.175 27.3062C151.523 27.0259 151.781 26.6528 151.947 26.1869C152.118 25.721 152.203 25.2077 152.203 24.6471C152.203 24.0903 152.118 23.579 151.947 23.113C151.781 22.6434 151.523 22.2665 151.175 21.9824C150.826 21.6983 150.387 21.5562 149.857 21.5562C149.322 21.5562 148.879 21.6983 148.527 21.9824C148.179 22.2665 147.919 22.6434 147.749 23.113C147.582 23.579 147.499 24.0903 147.499 24.6471C147.499 25.2077 147.582 25.721 147.749 26.1869C147.919 26.6528 148.179 27.0259 148.527 27.3062C148.879 27.5865 149.322 27.7267 149.857 27.7267ZM157.442 28.9767L154.874 20.2494H156.629L158.34 26.6585H158.425L160.141 20.2494H161.896L163.601 26.6301H163.686L165.385 20.2494H167.141L164.578 28.9767H162.845L161.072 22.6755H160.942L159.169 28.9767H157.442ZM172.249 29.1528C171.389 29.1528 170.648 28.9691 170.027 28.6017C169.41 28.2305 168.932 27.7096 168.595 27.0392C168.262 26.3649 168.095 25.5752 168.095 24.6699C168.095 23.7759 168.262 22.988 168.595 22.3062C168.932 21.6244 169.402 21.0922 170.004 20.7096C170.61 20.3271 171.319 20.1358 172.129 20.1358C172.622 20.1358 173.099 20.2172 173.561 20.3801C174.023 20.543 174.438 20.7987 174.805 21.1471C175.173 21.4956 175.463 21.9483 175.675 22.5051C175.887 23.0581 175.993 23.7305 175.993 24.5221V25.1244H169.055V23.8517H174.328C174.328 23.4047 174.237 23.0089 174.055 22.6642C173.874 22.3157 173.618 22.0411 173.288 21.8403C172.963 21.6396 172.58 21.5392 172.141 21.5392C171.663 21.5392 171.247 21.6566 170.891 21.8915C170.538 22.1225 170.266 22.4255 170.072 22.8005C169.883 23.1718 169.788 23.5752 169.788 24.0108V25.0051C169.788 25.5884 169.891 26.0846 170.095 26.4937C170.304 26.9028 170.593 27.2153 170.965 27.4312C171.336 27.6434 171.769 27.7494 172.266 27.7494C172.588 27.7494 172.881 27.704 173.146 27.613C173.412 27.5184 173.641 27.3782 173.834 27.1926C174.027 27.007 174.175 26.7778 174.277 26.5051L175.885 26.7949C175.756 27.2684 175.525 27.6831 175.192 28.0392C174.862 28.3915 174.447 28.6661 173.947 28.863C173.451 29.0562 172.885 29.1528 172.249 29.1528ZM177.878 28.9767V20.2494H179.52V21.6358H179.611C179.77 21.1661 180.05 20.7968 180.452 20.5278C180.857 20.2551 181.315 20.1187 181.827 20.1187C181.933 20.1187 182.058 20.1225 182.202 20.1301C182.349 20.1377 182.465 20.1471 182.548 20.1585V21.7835C182.48 21.7646 182.359 21.7437 182.185 21.721C182.01 21.6945 181.836 21.6812 181.662 21.6812C181.26 21.6812 180.903 21.7665 180.588 21.9369C180.278 22.1036 180.031 22.3365 179.849 22.6358C179.668 22.9312 179.577 23.2684 179.577 23.6471V28.9767H177.878Z" fill="#00112D"/>
</g>
<defs>
<filter id="filter0_b_1632_8107" x="-10.7199" y="-10.463" width="215.067" height="67.8794" filterUnits="userSpaceOnUse" color-interpolation-filters="sRGB">
<feFlood flood-opacity="0" result="BackgroundImageFix"/>
<feGaussianBlur in="BackgroundImageFix" stdDeviation="5.35993"/>
<feComposite in2="SourceAlpha" operator="in" result="effect1_backgroundBlur_1632_8107"/>
<feBlend mode="normal" in="SourceGraphic" in2="effect1_backgroundBlur_1632_8107" result="shape"/>
</filter>
</defs>
</svg>
