<svg width="194" height="47" viewBox="0 0 194 47" fill="none" xmlns="http://www.w3.org/2000/svg">
<g filter="url(#filter0_b_1632_8097)">
<rect y="0.5" width="193.628" height="45.7568" rx="5.18919" fill="white" fill-opacity="0.96"/>
<rect x="0.324325" y="0.824325" width="192.979" height="45.1081" rx="4.86487" stroke="white" stroke-width="0.648649"/>
<rect x="8" y="8.87842" width="29" height="29" rx="14.5" fill="#0A41AD"/>
<rect x="8" y="8.87842" width="29" height="29" rx="14.5" stroke="#1C58CB" stroke-width="4"/>
<path d="M23.9416 16.3034L25.4083 19.2367C25.6083 19.645 26.1416 20.0367 26.5916 20.1117L29.2499 20.5534C30.9499 20.8367 31.3499 22.07 30.1249 23.2867L28.0583 25.3534C27.7083 25.7034 27.5166 26.3784 27.6249 26.8617L28.2166 29.42C28.6833 31.445 27.6083 32.2284 25.8166 31.17L23.3249 29.695C22.8749 29.4284 22.1333 29.4284 21.6749 29.695L19.1833 31.17C17.3999 32.2284 16.3166 31.4367 16.7833 29.42L17.3749 26.8617C17.4833 26.3784 17.2916 25.7034 16.9416 25.3534L14.8749 23.2867C13.6583 22.07 14.0499 20.8367 15.7499 20.5534L18.4083 20.1117C18.8499 20.0367 19.3833 19.645 19.5833 19.2367L21.0499 16.3034C21.8499 14.7117 23.1499 14.7117 23.9416 16.3034Z" fill="white"/>
<rect x="45" y="12.9189" width="83.6276" height="7.94595" rx="3.97297" fill="#E6E6E6"/>
<rect x="45" y="26.0541" width="44.7568" height="7.78378" rx="3.89189" fill="#E6E6E6"/>
<path d="M140.923 17.2421L144.162 26.7193H144.292L147.531 17.2421H149.429L145.241 28.8784H143.213L139.025 17.2421H140.923ZM153.859 29.0546C152.999 29.0546 152.259 28.8708 151.638 28.5034C151.02 28.1322 150.543 27.6114 150.206 26.9409C149.872 26.2667 149.706 25.4769 149.706 24.5716C149.706 23.6777 149.872 22.8898 150.206 22.208C150.543 21.5261 151.013 20.9939 151.615 20.6114C152.221 20.2288 152.929 20.0375 153.74 20.0375C154.232 20.0375 154.709 20.1189 155.172 20.2818C155.634 20.4447 156.048 20.7004 156.416 21.0489C156.783 21.3974 157.073 21.85 157.285 22.4068C157.497 22.9599 157.603 23.6322 157.603 24.4239V25.0261H150.666V23.7534H155.939C155.939 23.3064 155.848 22.9106 155.666 22.5659C155.484 22.2174 155.228 21.9428 154.899 21.7421C154.573 21.5413 154.191 21.4409 153.751 21.4409C153.274 21.4409 152.857 21.5583 152.501 21.7932C152.149 22.0243 151.876 22.3273 151.683 22.7023C151.494 23.0735 151.399 23.4769 151.399 23.9125V24.9068C151.399 25.4902 151.501 25.9864 151.706 26.3955C151.914 26.8046 152.204 27.1171 152.575 27.333C152.946 27.5451 153.38 27.6511 153.876 27.6511C154.198 27.6511 154.492 27.6057 154.757 27.5148C155.022 27.4201 155.251 27.2799 155.444 27.0943C155.638 26.9087 155.785 26.6796 155.888 26.4068L157.495 26.6966C157.367 27.1701 157.136 27.5849 156.802 27.9409C156.473 28.2932 156.058 28.5678 155.558 28.7648C155.062 28.958 154.495 29.0546 153.859 29.0546ZM159.488 28.8784V20.1511H161.13V21.5375H161.221C161.38 21.0678 161.661 20.6985 162.062 20.4296C162.468 20.1568 162.926 20.0205 163.437 20.0205C163.543 20.0205 163.668 20.0243 163.812 20.0318C163.96 20.0394 164.075 20.0489 164.159 20.0602V21.6852C164.091 21.6663 163.969 21.6455 163.795 21.6227C163.621 21.5962 163.447 21.583 163.272 21.583C162.871 21.583 162.513 21.6682 162.199 21.8386C161.888 22.0053 161.642 22.2383 161.46 22.5375C161.278 22.833 161.187 23.1701 161.187 23.5489V28.8784H159.488ZM165.629 28.8784V20.1511H167.328V28.8784H165.629ZM166.487 18.8046C166.191 18.8046 165.938 18.7061 165.726 18.5091C165.517 18.3083 165.413 18.0697 165.413 17.7932C165.413 17.5129 165.517 17.2743 165.726 17.0773C165.938 16.8765 166.191 16.7761 166.487 16.7761C166.782 16.7761 167.034 16.8765 167.243 17.0773C167.455 17.2743 167.561 17.5129 167.561 17.7932C167.561 18.0697 167.455 18.3083 167.243 18.5091C167.034 18.7061 166.782 18.8046 166.487 18.8046ZM173.767 20.1511V21.5148H168.835V20.1511H173.767ZM170.187 28.8784V19.1398C170.187 18.5943 170.307 18.1417 170.545 17.7818C170.784 17.4182 171.1 17.1474 171.494 16.9693C171.888 16.7875 172.316 16.6966 172.778 16.6966C173.119 16.6966 173.411 16.725 173.653 16.7818C173.896 16.8349 174.075 16.8841 174.193 16.9296L173.795 18.3046C173.716 18.2818 173.613 18.2553 173.488 18.225C173.363 18.1909 173.212 18.1739 173.034 18.1739C172.621 18.1739 172.325 18.2761 172.147 18.4807C171.973 18.6852 171.886 18.9807 171.886 19.3671V28.8784H170.187ZM176.593 32.1511C176.34 32.1511 176.109 32.1303 175.9 32.0886C175.692 32.0508 175.537 32.0091 175.434 31.9636L175.843 30.5716C176.154 30.6549 176.431 30.6909 176.673 30.6796C176.915 30.6682 177.129 30.5773 177.315 30.4068C177.504 30.2364 177.671 29.958 177.815 29.5716L178.025 28.9921L174.832 20.1511H176.65L178.861 26.9239H178.951L181.162 20.1511H182.986L179.389 30.0432C179.222 30.4977 179.01 30.8822 178.753 31.1966C178.495 31.5148 178.188 31.7534 177.832 31.9125C177.476 32.0716 177.063 32.1511 176.593 32.1511Z" fill="#00112D"/>
</g>
<defs>
<filter id="filter0_b_1632_8097" x="-10.3784" y="-9.87839" width="214.384" height="66.5136" filterUnits="userSpaceOnUse" color-interpolation-filters="sRGB">
<feFlood flood-opacity="0" result="BackgroundImageFix"/>
<feGaussianBlur in="BackgroundImageFix" stdDeviation="5.18919"/>
<feComposite in2="SourceAlpha" operator="in" result="effect1_backgroundBlur_1632_8097"/>
<feBlend mode="normal" in="SourceGraphic" in2="effect1_backgroundBlur_1632_8097" result="shape"/>
</filter>
</defs>
</svg>
